<?xml version="1.0" encoding="UTF-8"?>
<svg width="18px" height="24px" viewBox="0 0 18 24" version="1.1" xmlns="http://www.w3.org/2000/svg" xmlns:xlink="http://www.w3.org/1999/xlink">
    <!-- Generator: Sketch 57.1 (83088) - https://sketch.com -->
    <title>icon / content</title>
    <desc>Created with Sketch.</desc>
    <g id="icon-/-content" stroke="none" stroke-width="1" fill="none" fill-rule="evenodd">
        <rect id="Rectangle" stroke="#1F2225" x="0.5" y="0.5" width="17" height="23"></rect>
        <path d="M13.6666667,18.3333342 L7.81566667,18.3333342 L12.8511667,14.2306731 C13.4178333,13.7688404 13.4965,12.9396748 13.026,12.3828422 L12.2571667,11.4735101 C11.7865,10.9168442 10.9423333,10.8398443 10.3753333,11.3018437 L5.22533333,15.4981714 C5.22516667,15.498338 5.22483333,15.4990047 5.2245,15.499338 C5.19333333,15.5245047 5.16916667,15.556838 5.14866667,15.5913379 C5.14333333,15.6003379 5.13833333,15.6088379 5.13416667,15.6185045 C5.13016667,15.6263379 5.12433333,15.6331712 5.12133333,15.6418378 L4.02166667,18.5385006 C4.0155,18.5548339 4.01366667,18.5715006 4.01016667,18.5883339 C4.00866667,18.5945005 4.00716667,18.6005005 4.006,18.6066672 C4.004,18.6193338 4.00283333,18.6318338 4.00233333,18.6446671 C4.00183333,18.6518338 4,18.6590005 4,18.6666671 C4,18.8445002 4.13983333,18.9886667 4.31533333,18.9981667 C4.316,18.9981667 4.3165,18.9983333 4.31716667,18.9983333 C4.3225,18.9986667 4.32783333,19 4.33333333,19 L13.6666667,19 C13.8506667,19 14,18.8506669 14,18.6666671 C14,18.4826674 13.8506667,18.3333342 13.6666667,18.3333342 Z M10.8205,11.828343 C11.0918333,11.6075099 11.4958333,11.6440099 11.7208333,11.9106762 L12.4895,12.8198416 C12.7148333,13.0863413 12.677,13.4828407 12.4056667,13.7038404 L12.1265,13.9310068 L10.5413333,12.0558426 L10.8205,11.828343 Z M10.0053333,12.4926754 L11.5906667,14.3680062 L7.524,17.6815018 L5.93866667,15.806171 L10.0053333,12.4926754 Z M5.56416667,16.4346701 L6.79783333,17.8941682 L4.88666667,18.2186677 L5.56416667,16.4346701 Z" id="Shape" fill="#000000" fill-rule="nonzero"></path>
        <path d="M13.6666667,6 L4.33333333,6 C4.14916667,6 4,5.776 4,5.5 C4,5.224 4.14916667,5 4.33333333,5 L13.6666667,5 C13.8506667,5 14,5.224 14,5.5 C14,5.776 13.8506667,6 13.6666667,6 Z" id="Path" fill="#000000" fill-rule="nonzero"></path>
        <path d="M13.6666667,8 L4.33333333,8 C4.14916667,8 4,7.776 4,7.5 C4,7.224 4.14916667,7 4.33333333,7 L13.6666667,7 C13.8506667,7 14,7.224 14,7.5 C14,7.776 13.8506667,8 13.6666667,8 Z" id="Path" fill="#000000" fill-rule="nonzero"></path>
        <path d="M13.6666667,10 L4.33333333,10 C4.14916667,10 4,9.776 4,9.5 C4,9.224 4.14916667,9 4.33333333,9 L13.6666667,9 C13.8506667,9 14,9.224 14,9.5 C14,9.776 13.8506667,10 13.6666667,10 Z" id="Path" fill="#000000" fill-rule="nonzero"></path>
    </g>
</svg>