<?xml version="1.0" encoding="utf-8"?>
<!-- Generator: Adobe Illustrator 23.0.4, SVG Export Plug-In . SVG Version: 6.00 Build 0)  -->
<svg version="1.1" id="Layer_1" xmlns="http://www.w3.org/2000/svg" xmlns:xlink="http://www.w3.org/1999/xlink" x="0px" y="0px"
	 viewBox="0 0 80 80" style="enable-background:new 0 0 80 80;" xml:space="preserve">
<style type="text/css">
	.st0{fill:#121212;}
</style>
<title>Artboard 1</title>
<path class="st0" d="M40,4c19.9,0,36,16.1,36,36S59.9,76,40,76S4,59.9,4,40S20.1,4,40,4 M40,0C17.9,0,0,17.9,0,40s17.9,40,40,40
	s40-17.9,40-40S62.1,0,40,0z"/>
<circle class="st0" cx="39.2" cy="28.9" r="12.2"/>
<path class="st0" d="M60.3,54.3c-1.5,4.7-12.7,9.4-21.1,9.4S20.3,59.4,18,54.3s8-10,17.2-11h0.1c1.3-0.1,2.5-0.2,3.8-0.2
	s2.5,0.1,3.8,0.2H43C52.3,44.3,61.9,49,60.3,54.3z"/>
</svg>
