<?xml version="1.0" encoding="UTF-8"?>
<svg width="18px" height="24px" viewBox="0 0 18 24" version="1.1" xmlns="http://www.w3.org/2000/svg" xmlns:xlink="http://www.w3.org/1999/xlink">
    <!-- Generator: Sketch 57.1 (83088) - https://sketch.com -->
    <title>icon / reports</title>
    <desc>Created with Sketch.</desc>
    <g id="icon-/-reports" stroke="none" stroke-width="1" fill="none" fill-rule="evenodd">
        <path d="M0.499671577,0 L17.5003284,0 L18,0 L18,0.510648993 L18,23.489351 L18,24 L17.5003284,24 L0.499671577,24 L0,24 L0,23.489351 L0,0.510648993 L0,0 L0.499671577,0 Z M17,1 L1,1 L1,23 L17,23 L17,1 Z" id="Shape" fill="#212121" fill-rule="nonzero"></path>
        <g id="Group" transform="translate(2.000000, 3.000000)" fill="#212121" fill-rule="nonzero">
            <polygon id="Path" points="5.42668 5 5.42668 11 4.57332 11 4.57332 5"></polygon>
            <polygon id="Path" points="7.42666 2 7.42666 11 6.57334 11 6.57334 2"></polygon>
            <polygon id="Path" points="10.42668 0 10.42668 11 9.57332 11 9.57332 0"></polygon>
            <polygon id="Path" points="2.42668 7.27764 2.42668 10.72236 1.57332 10.72236 1.57332 7.27764"></polygon>
            <polygon id="Path" points="2 13.57332 12 13.57332 12 14.42668 2 14.42668"></polygon>
            <polygon id="Path" points="2 15.57332 12 15.57332 12 16.42668 2 16.42668"></polygon>
        </g>
    </g>
</svg>