<?xml version="1.0" encoding="UTF-8"?>
<svg width="24px" height="20px" viewBox="0 0 24 20" version="1.1" xmlns="http://www.w3.org/2000/svg" xmlns:xlink="http://www.w3.org/1999/xlink">
    <!-- Generator: Sketch 57.1 (83088) - https://sketch.com -->
    <title>icon / users</title>
    <desc>Created with Sketch.</desc>
    <g id="icon-/-users" stroke="none" stroke-width="1" fill="none" fill-rule="evenodd" stroke-linecap="round" stroke-linejoin="round">
        <g id="iconfinder_users_135_278632" transform="translate(1.000000, 2.000000)" stroke="#000000">
            <g id="Group" transform="translate(3.000000, 0.000000)">
                <path d="M5.80778947,7.35652174 C5.25405263,7.74886957 4.58463158,7.984 3.82457895,7.984 C1.561,7.984 0.0998421053,5.89982609 0.0998421053,3.76382609 C0.0998421053,1.62713043 1.561,0.246608696 3.82457895,0.246608696 C5.22494737,0.246608696 6.03552329,0.522849655 6.66699697,1.43171922" id="Path"></path>
            </g>
            <path d="M4.2451497,7.12861919 C0.292063947,7.97110584 0,11.4527079 0,11.4527079 C0,11.9973303 1.62209314,12.9070326 4.57646886,13.1286192" id="Path"></path>
        </g>
        <g id="Group" transform="translate(5.000000, 2.000000)" stroke="#000000">
            <path d="M13.30128,4.89093617 C13.30128,7.6492766 11.5272,10.3378085 8.7822,10.3378085 C6.03756,10.3378085 4.2642,7.6492766 4.2642,4.89093617 C4.2642,2.13259574 6.03756,0.351212766 8.7822,0.351212766 C11.52756,0.351212766 13.30128,2.13259574 13.30128,4.89093617 Z" id="Path"></path>
            <path d="M6.49044,9.60897872 C1.28808,10.6014894 0.34632,14.850766 0.34632,14.850766 L0.34632,14.850766 C0.34632,15.6041915 4.07052,16.7435533 9.08316,16.7435533 C14.09652,16.7439149 17.82036,15.6049149 17.82036,14.850766 L17.82036,14.850766 C17.82036,14.850766 16.8192,10.3370851 11.18808,9.52723404" id="Path"></path>
        </g>
    </g>
</svg>