<svg id="Layer_1" xmlns="http://www.w3.org/2000/svg" viewBox="0 0 80 80"><style>.st0{fill:none;stroke:#4a4a4a;stroke-width:5.5224;stroke-miterlimit:10}</style><title>Artboard 1</title><path class="st0" d="M9.4 3h43.5c.6 0 1.1.2 1.5.6l16.5 17.5c.4.4.6 1 .6 1.5v53c0 .7-.6 1.3-1.3 1.3H9.8c-.7 0-1.3-.6-1.3-1.3V3.9c0-.5.4-.9.9-.9z"/><path class="st0" d="M48.8 3v20.5c0 .5.4 1 1 1h21.6"/><path d="M46.2 38.2h-4.6v-4.9H56v4.9h-3.8l-9.4 12.7 9.6 13.5H57v4.9H46.6v-4.4L39.7 55 33 64.4h4.6v4.9H22.9v-4.9h4l9.9-13.6-8.9-12.6h-4.2v-4.9h9.9v4.5l6.2 8.9 6.4-8.5z" fill="#44840a"/></svg>