<svg id="Layer_1" xmlns="http://www.w3.org/2000/svg" viewBox="0 0 80 80"><style>.st0{fill:none;stroke:#4a4a4a;stroke-width:5.5224;stroke-miterlimit:10}</style><title>Artboard 1</title><path class="st0" d="M9.4 3h43.5c.6 0 1.1.2 1.5.6l16.5 17.5c.4.4.6 1 .6 1.5v53c0 .7-.6 1.3-1.3 1.3H9.8c-.7 0-1.3-.6-1.3-1.3V3.9c0-.5.4-.9.9-.9z"/><path class="st0" d="M48.8 3v20.5c0 .5.4 1 1 1h21.6"/><path d="M28.4 58.2c9.9-12.1 14.5-50.6 7.7-33.1C28.4 45 72.6 63.7 61.5 52.7c-7.7-7.7-47.5 6.6-43 14.4 1.6 2.8 7.8-6.3 9.9-8.9z" stroke="#e5112c" stroke-width="2.209" fill="none" stroke-miterlimit="10"/></svg>