<svg id="Layer_1" xmlns="http://www.w3.org/2000/svg" viewBox="0 0 80 80"><style>.st0{fill:none;stroke:#4a4a4a;stroke-width:5.5224;stroke-miterlimit:10}</style><title>Artboard 1</title><path class="st0" d="M9.4 3h43.5c.6 0 1.1.2 1.5.6l16.5 17.5c.4.4.6 1 .6 1.5v53c0 .7-.6 1.3-1.3 1.3H9.8c-.7 0-1.3-.6-1.3-1.3V3.9c0-.5.4-.9.9-.9z"/><path class="st0" d="M48.8 3v20.5c0 .5.4 1 1 1h21.6"/><path d="M28.4 38.8h-4.3V34h20.1c16.7 0 16.7 23.3 0 23.4H33.6v7.2H38v4.8H24.4v-4.8h4V38.8zm15.8 13.8c3.8.2 7.1-2.7 7.3-6.5S48.8 39 45 38.8H33.6v13.8h10.6z" fill="#b85c00"/></svg>