<svg id="Layer_1" xmlns="http://www.w3.org/2000/svg" viewBox="0 0 80 80"><style>.st0{fill:none;stroke:#4a4a4a;stroke-width:5.5224;stroke-miterlimit:10}</style><title>Artboard 1</title><path class="st0" d="M9.4 3h43.5c.6 0 1.1.2 1.5.6l16.5 17.5c.4.4.6 1 .6 1.5v53c0 .7-.6 1.3-1.3 1.3H9.8c-.7 0-1.3-.6-1.3-1.3V3.9c0-.5.4-.9.9-.9z"/><path class="st0" d="M48.8 3v20.5c0 .5.4 1 1 1h21.6"/><path d="M51.6 68.9h-4.4l-7.5-23.7-7.3 23.7h-4.6l-9-30.9h-3.1v-4.9h11.5V38h-3.4l6.5 23.3 7.9-27.2h3l8 27.2L55.6 38h-3.4v-4.9h11.6V38h-3l-9.2 30.9z" fill="#0077c0"/></svg>