<?xml version="1.0" standalone="no"?>
<!DOCTYPE svg PUBLIC "-//W3C//DTD SVG 20010904//EN"
 "http://www.w3.org/TR/2001/REC-SVG-20010904/DTD/svg10.dtd">
<svg version="1.0" xmlns="http://www.w3.org/2000/svg"
 width="134.000000pt" height="134.000000pt" viewBox="0 0 134.000000 134.000000"
 preserveAspectRatio="xMidYMid meet">
<metadata>
Created by potrace 1.11, written by Peter Selinger 2001-2013
</metadata>
<g transform="translate(0.000000,134.000000) scale(0.100000,-0.100000)"
fill="#000000" stroke="none">
<path d="M457 1241 c-15 -50 -27 -95 -27 -101 0 -15 271 -502 277 -497 2 3 12
57 22 120 l18 116 -126 225 c-68 124 -128 226 -131 226 -4 0 -18 -40 -33 -89z"/>
<path d="M1020 663 c-63 -12 -76 -17 -76 -34 0 -10 1 -19 2 -19 7 0 169 62
173 66 7 6 -16 3 -99 -13z"/>
<path d="M684 484 c-18 -14 -18 -15 4 -4 12 6 22 13 22 15 0 8 -5 6 -26 -11z"/>
<path d="M840 420 c-11 -22 -18 -40 -15 -40 2 0 14 18 25 40 11 22 18 40 15
40 -2 0 -14 -18 -25 -40z"/>
<path d="M490 343 l-85 -88 88 85 c81 79 92 90 84 90 -1 0 -41 -39 -87 -87z"/>
<path d="M740 340 c-30 -16 -50 -29 -45 -29 6 0 35 13 65 29 30 16 51 29 45
29 -5 0 -35 -13 -65 -29z"/>
<path d="M275 140 c-33 -33 -55 -60 -50 -60 14 1 122 59 110 59 -5 0 -21 -6
-35 -14 -45 -26 -45 -16 0 30 24 25 42 45 39 45 -2 0 -31 -27 -64 -60z"/>
</g>
</svg>
