<?xml version="1.0" encoding="utf-8"?>
<!-- Generator: Adobe Illustrator 23.0.6, SVG Export Plug-In . SVG Version: 6.00 Build 0)  -->
<svg version="1.1" id="Layer_1" xmlns="http://www.w3.org/2000/svg" xmlns:xlink="http://www.w3.org/1999/xlink" x="0px" y="0px"
	 viewBox="0 0 80 80" style="enable-background:new 0 0 80 80;" xml:space="preserve">
<style type="text/css">
	.st0{fill:#FFFFFF;stroke:#4A4A4A;stroke-width:5.5224;stroke-miterlimit:10;}
	.st1{fill:none;stroke:#4A4A4A;stroke-width:5.5224;stroke-miterlimit:10;}
	.st2{fill:#44840A;}
</style>
<title>Artboard 1</title>
<path class="st0" d="M9.4,3h43.5c0.6,0,1.1,0.2,1.5,0.6l16.5,17.5c0.4,0.4,0.6,1,0.6,1.5v53c0,0.7-0.6,1.3-1.3,1.3H9.8
	c-0.7,0-1.3-0.6-1.3-1.3V3.9C8.5,3.4,8.9,3,9.4,3z"/>
<path class="st1" d="M48.8,3v20.5c0,0.5,0.4,1,1,1h21.6"/>
<path class="st2" d="M46.2,38.2h-4.6v-4.9H56v4.9h-3.8l-9.4,12.7l9.6,13.5H57v4.9H46.6v-4.4L39.7,55L33,64.4h4.6v4.9H22.9v-4.9h4
	l9.9-13.6l-8.9-12.6h-4.2v-4.9h9.9v4.5l6.2,8.9C39.8,46.7,46.2,38.2,46.2,38.2z"/>
</svg>
