<svg xmlns="http://www.w3.org/2000/svg" viewBox="0 0 68.52 79.42"><defs><style>.a1d1f7d8-56e4-441e-88eb-b4869f529360,.a1e07c66-f97e-4a2b-bfcc-85a0d3299f3c{fill:none;stroke:#4a4a4a;stroke-miterlimit:10;}.a1d1f7d8-56e4-441e-88eb-b4869f529360{stroke-width:5.52px;}.a1e07c66-f97e-4a2b-bfcc-85a0d3299f3c{stroke-width:4px;}</style></defs><title>Asset 1</title><g id="a9ed83df-6b5a-410d-86d2-88e54522f5f1" data-name="Layer 2"><g id="e02d2646-e0ef-4d12-baf7-118e40b8f89a" data-name="Layer 1"><path class="a1d1f7d8-56e4-441e-88eb-b4869f529360" d="M3.66,2.76h43.5a2,2,0,0,1,1.5.6l16.5,17.5a2.2,2.2,0,0,1,.6,1.5v53a1.32,1.32,0,0,1-1.3,1.3H4.06a1.32,1.32,0,0,1-1.3-1.3V3.66A.9.9,0,0,1,3.66,2.76Z"/><path class="a1d1f7d8-56e4-441e-88eb-b4869f529360" d="M43.06,2.76v20.5a1,1,0,0,0,1,1h21.6"/><line class="a1e07c66-f97e-4a2b-bfcc-85a0d3299f3c" x1="15.67" y1="38.34" x2="54.36" y2="38.34"/><line class="a1e07c66-f97e-4a2b-bfcc-85a0d3299f3c" x1="15.67" y1="46.91" x2="54.36" y2="46.91"/><line class="a1e07c66-f97e-4a2b-bfcc-85a0d3299f3c" x1="15.67" y1="55.47" x2="54.36" y2="55.47"/><line class="a1e07c66-f97e-4a2b-bfcc-85a0d3299f3c" x1="15.67" y1="64.03" x2="54.36" y2="64.03"/></g></g></svg>