<?xml version="1.0" encoding="utf-8"?>
<!-- Generator: Adobe Illustrator 23.0.6, SVG Export Plug-In . SVG Version: 6.00 Build 0)  -->
<svg version="1.1" id="Layer_1" xmlns="http://www.w3.org/2000/svg" xmlns:xlink="http://www.w3.org/1999/xlink" x="0px" y="0px"
	 viewBox="0 0 80 80" style="enable-background:new 0 0 80 80;" xml:space="preserve">
<style type="text/css">
	.st0{fill:#FFFFFF;stroke:#4A4A4A;stroke-width:5.52;stroke-miterlimit:10;}
	.st1{fill:#FFFFFF;stroke:#4A4A4A;stroke-width:4;stroke-miterlimit:10;}
</style>
<title>Asset 1</title>
<g id="a9ed83df-6b5a-410d-86d2-88e54522f5f1">
	<g id="e02d2646-e0ef-4d12-baf7-118e40b8f89a">
		<path class="st0" d="M9.4,3.1h43.5c0.6,0,1.1,0.2,1.5,0.6l16.5,17.5c0.4,0.4,0.6,0.9,0.6,1.5v53c0,0.7-0.6,1.3-1.3,1.3H9.8
			c-0.7,0-1.3-0.6-1.3-1.3V4C8.5,3.5,8.9,3.1,9.4,3.1L9.4,3.1z"/>
		<path class="st0" d="M48.8,3.1v20.5c0,0.6,0.4,1,1,1h21.6"/>
		<line class="st1" x1="21.4" y1="38.6" x2="60.1" y2="38.6"/>
		<line class="st1" x1="21.4" y1="47.2" x2="60.1" y2="47.2"/>
		<line class="st1" x1="21.4" y1="55.8" x2="60.1" y2="55.8"/>
		<line class="st1" x1="21.4" y1="64.3" x2="60.1" y2="64.3"/>
	</g>
</g>
</svg>
