<?xml version="1.0" encoding="utf-8"?>
<!-- Generator: Adobe Illustrator 23.0.6, SVG Export Plug-In . SVG Version: 6.00 Build 0)  -->
<svg version="1.1" id="Layer_1" xmlns="http://www.w3.org/2000/svg" xmlns:xlink="http://www.w3.org/1999/xlink" x="0px" y="0px"
	 viewBox="0 0 80 80" style="enable-background:new 0 0 80 80;" xml:space="preserve">
<style type="text/css">
	.st0{fill:#FFFFFF;stroke:#4A4A4A;stroke-width:5.5224;stroke-miterlimit:10;}
	.st1{fill:none;stroke:#4A4A4A;stroke-width:5.5224;stroke-miterlimit:10;}
	.st2{fill:#B85C00;}
</style>
<title>Artboard 1</title>
<path class="st0" d="M9.4,3h43.5c0.6,0,1.1,0.2,1.5,0.6l16.5,17.5c0.4,0.4,0.6,1,0.6,1.5v53c0,0.7-0.6,1.3-1.3,1.3H9.8
	c-0.7,0-1.3-0.6-1.3-1.3V3.9C8.5,3.4,8.9,3,9.4,3z"/>
<path class="st1" d="M48.8,3v20.5c0,0.5,0.4,1,1,1h21.6"/>
<path class="st2" d="M28.4,38.8h-4.3V34h20.1c16.7,0,16.7,23.3,0,23.4H33.6v7.2H38v4.8H24.4v-4.8h4V38.8z M44.2,52.6
	c3.8,0.2,7.1-2.7,7.3-6.5S48.8,39,45,38.8H33.6v13.8C33.6,52.6,44.2,52.6,44.2,52.6z"/>
</svg>
