<?xml version="1.0" encoding="utf-8"?>
<!-- Generator: Adobe Illustrator 23.0.4, SVG Export Plug-In . SVG Version: 6.00 Build 0)  -->
<svg version="1.1" id="Layer_1" xmlns="http://www.w3.org/2000/svg" xmlns:xlink="http://www.w3.org/1999/xlink" x="0px" y="0px"
	 viewBox="0 0 2000 700" enable-background="new 0 0 2000 700" xml:space="preserve">
<path fill="#239C4A" d="M550.44,456.72v-35.51c-13.93-6.62-24.42-16.79-31.2-30.29l-0.09-0.17c-1.22-2.43-3.49-6.95-0.97-11.73
	c1.71-3.24,4.93-5.19,9.56-5.81c7.62-1.02,15.18-2.41,22.7-4.06v-40.96c0-10.5-8.59-19.08-19.08-19.08h-37.56
	c-10.5,0-19.08,8.59-19.08,19.08v136.49c0,0.34,0.03,0.66,0.05,0.99c0.29,0,0.59,0.01,0.88,0.01
	C502.27,465.68,526.85,462.74,550.44,456.72z"/>
<ellipse transform="matrix(0.9871 -0.1602 0.1602 0.9871 -33.3302 85.5454)" fill="#239C4A" cx="513.94" cy="249.51" rx="39.23" ry="39.23"/>
<path fill="#646569" d="M632.17,343.44c5.3-1.92,10.46-3.77,15.54-5.56c-3.47-4.89-9.15-8.1-15.56-8.1h-37.56
	c-10.5,0-19.08,8.59-19.08,19.08v13.81c18.42-5.4,36.51-11.94,54.28-18.37L632.17,343.44z"/>
<path fill="#646569" d="M586.9,430.02c-4.88,0-9.58-0.34-14.14-1v19.74c17.25-6.17,32.69-13.72,46.47-22.81
	C607,428.72,596.61,430.02,586.9,430.02z"/>
<ellipse transform="matrix(0.3827 -0.9239 0.9239 0.3827 129.8657 734.7187)" fill="#646569" cx="614.73" cy="270.18" rx="39.23" ry="39.23"/>
<path fill="#239C4A" d="M824.35,361.65c-0.34-0.23-0.67-0.46-1.01-0.69c-17.28-11.58-37.46-19.69-61.69-24.8
	c-24.55-5.19-47.57-4.95-68.32,0.69c-17.99,4.89-35.31,11.03-54.46,17.95l-2.4,0.87c-32.86,11.9-66.83,24.19-102.54,29.27
	c5.97,11.14,15.18,19.34,27.4,24.4c9.58,3.96,19.68,5.89,30.89,5.89c10.4,0,21.81-1.66,35.93-5.21c6.53-1.64,13.14-3.81,19.54-5.91
	c3.15-1.03,6.12-2,9.09-2.93l2.95-0.92l6.92,6.3l-3.56,3.98c-0.27,0.3-0.54,0.62-0.81,0.93c-0.87,1.02-1.73,2.03-2.76,3
	c-24.59,23.01-54.81,39.65-92.39,50.88c-28.11,8.4-57.33,12.49-89.32,12.49c-8.93,0-18.18-0.33-27.51-0.99
	c-27.37-1.93-54.58-6.35-80.89-13.16c-1.07-0.28-1.93-0.42-2.57-0.42c-0.67,0-0.85,0-1.34,0.94c-0.53,1.02,0.22,2.12,2.25,3.27
	c37.57,21.37,78.16,36.93,120.64,46.26c24.53,5.39,50.05,8.35,75.85,8.79c13.24,0.24,26.8-0.75,39.41-1.82
	c26.19-2.23,52.11-7.58,77.04-15.91c40.1-13.4,78.91-33.65,115.36-60.19c9.79-7.13,19.25-14.76,28.28-22.48V361.65z"/>
<path fill="#239C4A" d="M955.75,370.64l-24.93,95.3c-3.65,14.13-14.59,15.5-21.13,15.5c-6.54,0-17.48-1.37-21.13-15.5l-24.93-95.3
	c0-0.3-0.15-0.46-0.15-0.76c0-1.52,1.22-2.58,2.74-2.58h16.11c1.37,0,2.58,1.22,2.89,2.58l22.04,91.35
	c0.46,1.82,0.91,2.43,2.43,2.43s1.98-0.61,2.43-2.43l22.04-91.35c0.3-1.37,1.52-2.58,2.89-2.58h16.11c1.52,0,2.74,1.06,2.74,2.58
	C955.9,370.18,955.75,370.33,955.75,370.64z"/>
<path fill="#239C4A" d="M989.03,480.22h-15.05c-1.67,0-3.04-1.37-3.04-3.04v-107c0-1.67,1.37-2.89,3.04-2.89h15.05
	c1.67,0,3.04,1.22,3.04,2.89v107C992.07,478.86,990.7,480.22,989.03,480.22z"/>
<path fill="#239C4A" d="M1078.86,479.01c-2.28,0.61-12.31,2.43-24.01,2.43c-18.24,0-43.01-8.97-43.01-46.51v-22.34
	c0-38.15,24.77-46.51,43.01-46.51c11.7,0,21.73,1.82,24.01,2.43c1.98,0.61,3.34,1.37,3.34,3.5v10.18c0,1.82-0.76,3.19-3.04,3.19
	c0,0-0.15,0-0.3,0c-5.32-0.46-15.66-1.22-23.71-1.22c-12.77,0-22.04,6.84-22.04,28.42v22.34c0,21.13,9.27,28.42,22.04,28.42
	c8.05,0,18.39-0.76,23.71-1.22c0.15,0,0.3,0,0.3,0c2.28,0,3.04,1.37,3.04,3.19v10.18C1082.2,477.64,1080.83,478.4,1078.86,479.01z"
	/>
<path fill="#239C4A" d="M1170.2,384.93h-26.6v92.26c0,1.67-1.37,3.04-3.04,3.04h-15.05c-1.67,0-3.04-1.37-3.04-3.04v-92.26h-26.6
	c-1.67,0-3.04-1.06-3.04-2.73v-12.01c0-1.67,1.37-2.89,3.04-2.89h74.33c1.67,0,3.04,1.22,3.04,2.89v12.01
	C1173.24,383.86,1171.88,384.93,1170.2,384.93z"/>
<path fill="#239C4A" d="M1206.53,480.22h-15.05c-1.67,0-3.04-1.37-3.04-3.04v-107c0-1.67,1.37-2.89,3.04-2.89h15.05
	c1.67,0,3.04,1.22,3.04,2.89v107C1209.57,478.86,1208.2,480.22,1206.53,480.22z"/>
<path fill="#239C4A" d="M1327.36,480.22h-15.35c-1.37,0-2.43-1.52-2.43-3.04v-70.68c0-1.06-0.15-1.52-0.46-1.52
	c-0.15,0-0.46,0.46-0.76,0.91l-14.59,29.03c-0.91,1.67-2.89,2.58-4.86,2.58h-15.35c-1.98,0-3.95-0.91-4.86-2.58l-14.74-29.03
	c-0.3-0.46-0.61-0.91-0.76-0.91c-0.3,0-0.46,0.46-0.46,1.52v70.68c0,1.52-1.07,3.04-2.43,3.04h-15.35c-1.37,0-2.58-0.76-2.58-2.28
	V373.37c0-3.34,2.74-6.08,6.08-6.08h12.46c2.43,0,4.56,1.52,5.62,3.65l22.95,46.51c0.76,1.37,1.06,2.13,1.67,2.13
	s0.91-0.76,1.67-2.13l22.95-46.51c1.07-2.13,3.19-3.65,5.62-3.65h12.46c3.34,0,6.08,2.74,6.08,6.08v104.57
	C1329.94,479.47,1328.73,480.22,1327.36,480.22z"/>
<path fill="#239C4A" d="M1473.12,480.22h-15.05c-1.67,0-3.04-1.37-3.04-3.04v-46.51h-43.17v46.51c0,1.67-1.37,3.04-3.04,3.04h-15.05
	c-1.67,0-3.04-1.37-3.04-3.04v-107c0-1.67,1.37-2.89,3.04-2.89h15.05c1.67,0,3.04,1.22,3.04,2.89v41.95h43.17v-41.95
	c0-1.67,1.37-2.89,3.04-2.89h15.05c1.67,0,3.04,1.22,3.04,2.89v107C1476.16,478.86,1474.79,480.22,1473.12,480.22z"/>
<path fill="#239C4A" d="M1562.95,479.31c-4.86,0.76-10.79,2.13-28.88,2.13c-19.76,0-35.11-5.32-35.11-31.16v-53.05
	c0-25.84,15.35-31.16,35.11-31.16c18.09,0,24.01,1.37,28.88,2.13c2.28,0.3,3.04,1.06,3.04,3.19v9.73c0,1.67-1.37,3.04-3.04,3.04
	h-31.01c-8.82,0-12.01,3.04-12.01,13.07v16.42h41.19c1.67,0,3.04,1.37,3.04,3.04v10.94c0,1.67-1.37,3.04-3.04,3.04h-41.19v19.61
	c0,10.03,3.19,13.07,12.01,13.07h31.01c1.67,0,3.04,1.37,3.04,3.04v9.73C1565.99,478.25,1565.23,479.01,1562.95,479.31z"/>
<path fill="#239C4A" d="M1647.45,479.31c-4.56,1.06-17.78,2.13-25.84,2.13c-19.76,0-35.11-5.32-35.11-31.16v-79.95
	c0-1.67,1.37-3.04,3.04-3.04h15.05c1.67,0,3.04,1.37,3.04,3.04v79.95c0,10.03,3.04,13.07,11.85,13.07h27.97
	c1.67,0,3.04,1.37,3.04,3.04v9.73C1650.49,478.25,1649.73,478.86,1647.45,479.31z"/>
<path fill="#239C4A" d="M1699.59,438.12c-3.95,0-10.03-0.46-13.53-0.61v39.67c0,1.67-1.22,3.04-2.89,3.04h-15.2
	c-1.67,0-3.04-1.37-3.04-3.04V372.61c0-3.04,1.83-4.1,4.86-4.56c7.9-1.22,18.7-1.98,29.79-1.98c23.41,0,43.77,8.21,43.77,35.11v1.37
	C1743.36,429.46,1722.99,438.12,1699.59,438.12z M1722.39,401.19c0-12.77-7.6-17.63-22.8-17.63c-3.19,0-10.79,0.3-13.53,0.61v36.17
	c2.43,0.15,10.94,0.46,13.53,0.46c16.41,0,22.8-6.08,22.8-18.24V401.19z"/>
<path fill="none" d="M339.86,374.78c0,0-0.01,0.01-0.01,0.01c0.01,0.05,0.04,0.09,0.06,0.14
	C339.9,374.89,339.87,374.83,339.86,374.78z"/>
<path fill="none" d="M339.76,374.34c-0.01-0.07-0.02-0.12-0.03-0.19c0.01,0.07,0.01,0.14,0.02,0.21
	C339.75,374.35,339.76,374.35,339.76,374.34z"/>
<path fill="none" d="M340.36,365.95c-0.07-0.63-0.21-1.2-0.38-1.67C340.18,364.9,340.29,365.47,340.36,365.95L340.36,365.95z"/>
<path fill="none" d="M324.51,369.03c-0.17-0.63-0.28-1.34-0.29-2.11C324.23,367.68,324.33,368.38,324.51,369.03L324.51,369.03z"/>
<path fill="none" d="M332.55,414.73c0.14-0.16,0.28-0.32,0.43-0.47C332.84,414.4,332.69,414.56,332.55,414.73
	C332.55,414.73,332.55,414.73,332.55,414.73z"/>
<path fill="none" d="M279.51,311.36c-0.39-0.07-0.78-0.16-1.17-0.28l0,0C278.67,311.19,279.06,311.28,279.51,311.36z"/>
<path fill="none" d="M275.74,265.25c-0.23-0.34-0.5-0.68-0.82-1.02l0,0.01C275.22,264.56,275.49,264.89,275.74,265.25z"/>
<path fill="none" d="M306.46,348.09C306.45,348.09,306.45,348.09,306.46,348.09c0.09,0.52,0.23,1.02,0.41,1.48
	C306.68,349.09,306.55,348.59,306.46,348.09z"/>
<path fill="none" d="M306.37,347.45c-0.03-0.26-0.04-0.52-0.04-0.79C306.33,346.93,306.34,347.19,306.37,347.45L306.37,347.45z"/>
<path fill="none" d="M306.46,348.09C306.45,348.09,306.45,348.09,306.46,348.09c0.09,0.52,0.23,1.02,0.41,1.48
	C306.68,349.09,306.55,348.59,306.46,348.09z"/>
<path fill="none" d="M324.51,369.03c-0.17-0.63-0.28-1.34-0.29-2.11C324.23,367.68,324.33,368.38,324.51,369.03L324.51,369.03z"/>
<path fill="none" d="M306.37,347.45c-0.03-0.26-0.04-0.52-0.04-0.79C306.33,346.93,306.34,347.19,306.37,347.45L306.37,347.45z"/>
<path fill="none" d="M332.55,414.73c0.14-0.16,0.28-0.32,0.43-0.47C332.84,414.4,332.69,414.56,332.55,414.73
	C332.55,414.73,332.55,414.73,332.55,414.73z"/>
<path fill="none" d="M340.36,365.95c-0.07-0.63-0.21-1.2-0.38-1.67C340.18,364.9,340.29,365.47,340.36,365.95L340.36,365.95z"/>
<path fill="none" d="M275.74,265.25c-0.23-0.34-0.5-0.68-0.82-1.02l0,0.01C275.22,264.56,275.49,264.89,275.74,265.25z"/>
<path fill="none" d="M339.86,374.78c0,0-0.01,0.01-0.01,0.01c0.01,0.05,0.04,0.09,0.06,0.14
	C339.9,374.89,339.87,374.83,339.86,374.78z"/>
<path fill="none" d="M339.76,374.34c-0.01-0.07-0.02-0.12-0.03-0.19c0.01,0.07,0.01,0.14,0.02,0.21
	C339.75,374.35,339.76,374.35,339.76,374.34z"/>
<path fill="none" d="M279.51,311.36c-0.39-0.07-0.78-0.16-1.17-0.28l0,0C278.67,311.19,279.06,311.28,279.51,311.36z"/>
<path fill="none" d="M465.32,540.58L465.32,540.58c-0.24-0.24-0.47-0.43-0.68-0.6C464.88,540.17,465.1,540.37,465.32,540.58z"/>
<path fill="none" d="M468.29,545.8c0-0.59,0.07-1.18,0.21-1.77l0-0.01C468.34,544.7,468.3,545.32,468.29,545.8z"/>
<path fill="none" d="M452.54,539.83c0,0-0.45,0.31-0.96,0.82c0.32-0.32,0.65-0.6,0.99-0.84
	C452.56,539.82,452.55,539.83,452.54,539.83L452.54,539.83z"/>
<path fill="none" d="M418.28,545.43c0.45,0.02,0.96,0.08,1.5,0.2C419.3,545.51,418.8,545.45,418.28,545.43L418.28,545.43z"/>
<g>
	<path fill="#1155CC" d="M453.71,348.86c0-10.5-8.59-19.08-19.08-19.08h-37.56c-10.5,0-19.08,8.59-19.08,19.08V452.1
		c24.64,6.34,50.1,10.52,75.73,12.45V348.86z"/>
	
		<ellipse transform="matrix(0.9871 -0.1602 0.1602 0.9871 -37.8909 70.3177)" fill="#1155CC" cx="417.21" cy="270.18" rx="39.23" ry="39.23"/>
	<path fill="#1155CC" d="M966.23,327.19h-15.35c-1.37,0-2.43-1.52-2.43-3.04v-70.68c0-1.06-0.15-1.52-0.46-1.52
		c-0.15,0-0.46,0.46-0.76,0.91l-14.59,29.03c-0.91,1.67-2.89,2.58-4.86,2.58h-15.35c-1.98,0-3.95-0.91-4.86-2.58l-14.74-29.03
		c-0.3-0.46-0.61-0.91-0.76-0.91c-0.3,0-0.46,0.46-0.46,1.52v70.68c0,1.52-1.06,3.04-2.43,3.04h-15.35c-1.37,0-2.58-0.76-2.58-2.28
		V220.34c0-3.34,2.73-6.08,6.08-6.08h12.46c2.43,0,4.56,1.52,5.62,3.65l22.95,46.51c0.76,1.37,1.06,2.13,1.67,2.13
		c0.61,0,0.91-0.76,1.67-2.13l22.95-46.51c1.06-2.13,3.19-3.65,5.62-3.65h12.46c3.34,0,6.08,2.74,6.08,6.08v104.57
		C968.82,326.43,967.6,327.19,966.23,327.19z"/>
	<path fill="#1155CC" d="M1061.38,231.89h-26.6v92.26c0,1.67-1.37,3.04-3.04,3.04h-15.05c-1.67,0-3.04-1.37-3.04-3.04v-92.26h-26.6
		c-1.67,0-3.04-1.06-3.04-2.73v-12.01c0-1.67,1.37-2.89,3.04-2.89h74.33c1.67,0,3.04,1.22,3.04,2.89v12.01
		C1064.42,230.83,1063.05,231.89,1061.38,231.89z"/>
	<path fill="#1155CC" d="M1181.61,325.98c-2.28,0.61-12.31,2.43-24.01,2.43c-18.24,0-43.01-8.97-43.01-46.51v-22.34
		c0-38.15,24.77-46.51,43.01-46.51c11.7,0,21.73,1.82,24.01,2.43c1.98,0.61,3.34,1.37,3.34,3.5v10.18c0,1.82-0.76,3.19-3.04,3.19
		c0,0-0.15,0-0.3,0c-5.32-0.46-15.66-1.22-23.71-1.22c-12.77,0-22.04,6.84-22.04,28.42v22.34c0,21.13,9.27,28.42,22.04,28.42
		c8.05,0,18.39-0.76,23.71-1.22c0.15,0,0.3,0,0.3,0c2.28,0,3.04,1.37,3.04,3.19v10.18C1184.95,324.61,1183.58,325.37,1181.61,325.98
		z"/>
	<path fill="#1155CC" d="M1283.44,327.19h-18.54c-1.67,0-2.28-1.52-3.04-3.04l-21.89-40.58h-2.13c-3.95,0-10.03-0.46-13.53-0.61
		v41.19c0,1.67-1.22,3.04-2.89,3.04h-15.2c-1.67,0-3.04-1.37-3.04-3.04V219.58c0-3.04,1.83-4.1,4.86-4.56
		c7.9-1.22,18.7-1.98,29.79-1.98c23.41,0,43.77,8.36,43.77,34.35v1.37c0,16.11-8.06,26.14-20.52,31.01l23.86,44.38
		c0.3,0.46,0.3,0.91,0.3,1.22C1285.26,326.43,1284.65,327.19,1283.44,327.19z M1260.64,247.4c0-11.4-7.6-16.26-22.8-16.26
		c-3.19,0-10.79,0.3-13.53,0.61v34.2c2.43,0.15,10.94,0.46,13.53,0.46c15.66,0,22.8-4.26,22.8-17.63V247.4z"/>
	<path fill="#1155CC" d="M1320.53,327.19h-15.05c-1.67,0-3.04-1.37-3.04-3.04v-107c0-1.67,1.37-2.89,3.04-2.89h15.05
		c1.67,0,3.04,1.22,3.04,2.89v107C1323.57,325.83,1322.2,327.19,1320.53,327.19z"/>
	<path fill="#1155CC" d="M1441.36,327.19h-15.35c-1.37,0-2.43-1.52-2.43-3.04v-70.68c0-1.06-0.15-1.52-0.46-1.52
		c-0.15,0-0.46,0.46-0.76,0.91l-14.59,29.03c-0.91,1.67-2.89,2.58-4.86,2.58h-15.35c-1.98,0-3.95-0.91-4.86-2.58l-14.74-29.03
		c-0.3-0.46-0.61-0.91-0.76-0.91c-0.3,0-0.46,0.46-0.46,1.52v70.68c0,1.52-1.07,3.04-2.43,3.04h-15.35c-1.37,0-2.58-0.76-2.58-2.28
		V220.34c0-3.34,2.74-6.08,6.08-6.08h12.46c2.43,0,4.56,1.52,5.62,3.65l22.95,46.51c0.76,1.37,1.06,2.13,1.67,2.13
		s0.91-0.76,1.67-2.13l22.95-46.51c1.07-2.13,3.19-3.65,5.62-3.65h12.46c3.34,0,6.08,2.74,6.08,6.08v104.57
		C1443.94,326.43,1442.73,327.19,1441.36,327.19z"/>
	<path fill="#1155CC" d="M1530.73,326.28c-4.86,0.76-10.79,2.13-28.88,2.13c-19.76,0-35.11-5.32-35.11-31.16v-53.05
		c0-25.84,15.35-31.16,35.11-31.16c18.09,0,24.01,1.37,28.88,2.13c2.28,0.3,3.04,1.06,3.04,3.19v9.73c0,1.67-1.37,3.04-3.04,3.04
		h-31.01c-8.82,0-12.01,3.04-12.01,13.07v16.42h41.19c1.67,0,3.04,1.37,3.04,3.04v10.94c0,1.67-1.37,3.04-3.04,3.04h-41.19v19.61
		c0,10.03,3.19,13.07,12.01,13.07h31.01c1.67,0,3.04,1.37,3.04,3.04v9.73C1533.77,325.22,1533.01,325.98,1530.73,326.28z"/>
	<path fill="#1155CC" d="M532.1,536.37l0.01-0.14c0.04-0.82,0.07-1.8,0.09-2.59c-12.78-1.06-25.44-2.75-37.89-5.03
		c-0.07,0.07-0.15,0.11-0.22,0.18c-0.86,0.86-1.42,1.8-1.73,2.42c-0.88,1.75-0.99,3.47-0.81,4.88c-0.17,0.27-0.36,0.58-0.56,0.94
		c-0.13,0.23-0.3,0.54-0.48,0.91c-0.72-0.17-1.34-0.26-2.07-0.26h-0.63c-1.73,0-3.4,0.51-4.82,1.41c-1.55-1.29-3.55-2.05-5.71-2.05
		c-0.85,0-2.01,0.1-3.21,0.49c-1.58-0.06-2.93,0.23-4.11,0.78c-1.68-0.24-3.36,0.02-4.78,0.69c-0.77-0.27-1.5-0.42-2.13-0.51
		c-0.16-0.02-0.32-0.04-0.48-0.06c-0.45-0.38-0.94-0.72-1.46-1.01c-1.4-0.94-3.09-1.44-4.88-1.44h-1.05c-0.86,0-3.23,0-5.47,1.57
		c-0.81,0.36-1.56,0.85-2.24,1.45c-0.87,0.36-1.78,0.91-2.61,1.74c-0.63,0.62-1.09,1.28-1.43,1.86c-0.3,0-0.59,0.02-0.88,0.06
		c-0.96-0.34-2.1-0.59-3.33-0.57c-1.33-0.49-2.65-0.63-3.72-0.63c-0.24,0-0.51,0.01-0.78,0.02c-1.37-0.83-2.97-1.28-4.59-1.28
		c-1.01,0-2.04,0.18-2.42,0.26c-1.05,0.21-2.14,0.62-3.11,1.16c-1.69,0.44-3.01,1.35-3.98,2.26c-0.2-0.83-0.51-1.63-0.94-2.38
		c-0.1-0.58-0.26-1.13-0.45-1.62c0.23-0.86,0.36-1.79,0.36-2.64c0-1.3-0.3-2.62-0.85-3.83c-0.07-1.7-0.67-3.35-1.79-4.91
		c-0.26-1.58-0.94-2.87-1.58-3.78c-0.5-2.79-2.41-5.26-5.21-6.37c-0.86-0.96-1.93-1.79-3.04-2.34c-0.15-0.08-0.4-0.19-0.67-0.32
		c-1.51-1.3-3.38-2.01-5.37-2.01c-0.91,0-1.74,0.16-2.45,0.37c-0.24-0.18-0.45-0.33-0.63-0.45c0.62-1.49,0.75-2.92,0.75-3.83
		c0-0.19,0-0.4-0.02-0.63c0.29-0.86,0.44-1.74,0.44-2.63c0-1-0.17-1.81-0.48-2.93c0-0.68-0.07-1.37-0.2-2.02
		c-0.12-0.58-0.49-2.02-1.33-3.42c-9.77-4.38-19.37-9.12-28.8-14.22c0.43,0.97,0.99,1.79,1.51,2.49c0.06,0.07,0.11,0.15,0.16,0.22
		c0.07,0.47,0.18,0.93,0.32,1.39c0.36,1.6,1.18,3.11,2.36,4.3c0.17,0.17,0.35,0.34,0.54,0.5c0.05,0.11,0.11,0.23,0.16,0.34
		c0.49,0.99,1.13,1.78,1.74,2.38c0.06,0.32,0.14,0.64,0.24,0.97c0.16,0.73,0.41,1.38,0.67,2c0.33,1.4,1.01,2.71,1.96,3.75
		c0.06,0.07,0.13,0.17,0.21,0.26c0.7,0.87,1.49,1.6,2.35,2.16c0.23,0.37,0.48,0.74,0.76,1.11c0.05,0.06,0.1,0.13,0.16,0.21
		c-0.68,0.81-1.22,1.75-1.57,2.79c-0.24,0.71-0.52,1.83-0.52,3.09c0,1.08,0.21,2.21,0.61,3.24c0.3,0.93,0.73,1.69,1.12,2.29
		c0.08,0.84,0.29,1.66,0.62,2.44c0.58,2.31,2.08,3.81,2.97,4.71c0.71,0.71,1.58,1.37,2.51,1.93c0.49,1.38,1.44,2.87,3.21,4.19
		c2.62,1.96,6.44,2.31,9.29,0.88c0.07-0.03,0.16-0.07,0.26-0.12c0.28,0.53,0.61,1.02,0.99,1.47c0.15,1,0.47,1.97,0.94,2.86
		l-0.53,0.54l0,3.36c0,1.95,0.68,3.81,1.92,5.31c0.03,0.05,0.06,0.1,0.08,0.14c0.08,0.16,0.18,0.34,0.29,0.53
		c0.17,0.85,0.46,1.69,0.87,2.47c-0.02,1.42,0.29,2.62,0.52,3.34c0.02,0.06,0.03,0.13,0.03,0.09c0.09,0.56,0.25,1.32,0.34,1.69
		c0.47,1.88,1.59,3.47,2.44,4.47c0.55,0.65,1.1,1.24,1.13,1.27c0.38,0.39,0.8,0.73,1.25,1.04l0.06,0.06
		c0.92,0.92,2.17,1.7,3.05,2.18c0.09,0.05,0.19,0.1,0.28,0.15c0.31,0.51,0.73,1.08,1.27,1.63l0.55,0.55
		c0.89,0.89,1.81,1.58,2.72,2.04c1.17,0.59,2.44,0.89,3.77,0.89c1.4,0,2.82-0.34,4.11-0.98c1.01-0.51,2.05-1.25,2.83-2.03l0.62-0.62
		c1.22-1.21,1.87-2.64,2.19-3.6c0.16-0.48,0.41-1.36,0.49-2.4c0.22,0.02,0.45,0.03,0.68,0.03c0.33,0,0.61-0.01,1.17-0.08
		c0.97,0.41,2.02,0.65,3.09,0.7c0.62,0.39,1.29,0.72,2.03,0.96c1.22,0.4,2.52,0.52,3.8,0.36c0.45,0.22,1.04,0.49,1.47,0.67
		c1.13,0.48,2.32,0.73,3.55,0.73c3.04,0,5.85-1.49,7.52-4c0.05-0.07,0.09-0.14,0.13-0.2c0.69-0.87,1.13-1.78,1.41-2.5
		c0.93,0.34,1.88,0.61,3.06,0.62c2.58,1.52,5.53,1.62,8.02,0.48c0.74-0.02,1.55-0.1,2.29-0.3c1.23,0.09,2.57-0.09,3.79-0.51
		c0.43,0.43,0.95,0.88,1.55,1.28c2.21,1.47,5.16,1.89,7.69,1.04c0.65-0.22,1.26-0.49,1.82-0.82c0.06-0.03,0.13-0.05,0.2-0.08
		c1.35-0.54,1.69-0.71,1.86-0.79c0.27-0.13,0.59-0.31,0.94-0.54c0.44-0.11,0.87-0.25,1.29-0.43c1.32,0.42,3.12,0.62,4.81,0.16
		c0.24,0.12,0.5,0.23,0.77,0.34c1.78,0.71,3.65,0.79,4.37,0.79c1.15,0,4.22,0,6.64-2.45c0.94-0.93,1.63-2.06,2.05-3.31
		c0.61,0.67,1.35,1.26,2.2,1.76c0.36,0.51,0.77,0.98,1.22,1.4c0,0,0,0.01,0,0.01c0.21,0.62,0.66,1.81,1.36,2.87
		c1.11,1.66,2.81,2.98,4.68,3.61c0.11,0.06,0.22,0.11,0.34,0.17c0.43,0.24,0.89,0.45,1.38,0.66c0.66,0.28,1.24,0.48,1.75,0.63
		l0.9,0.45l5.32-0.01l2.38-2.42c2.56-2.6,2.5-5.86,2.46-8.02l-0.13-6.96c-0.02-1.17-0.04-2.21-0.04-2.37v-1.9
		C532.01,539.1,532.05,537.5,532.1,536.37z M415.28,545.26L415.28,545.26c0.51,0.02,1.02,0.09,1.5,0.2
		C416.25,545.34,415.74,545.28,415.28,545.26z M448.58,538.49c0.51-0.52,0.96-0.82,0.96-0.82l0,0c0.01,0,0.02-0.01,0.03-0.02
		C449.24,537.89,448.91,538.17,448.58,538.49z M462.32,538.42c-0.22-0.21-0.44-0.41-0.68-0.6
		C461.85,537.98,462.08,538.18,462.32,538.42L462.32,538.42z M465.29,545.64c0-0.48,0.05-1.1,0.2-1.77l0,0.01
		C465.37,544.45,465.3,545.05,465.29,545.64z"/>
	<path fill="#1155CC" d="M808.15,511.14H697.2c-4.27,1.59-8.55,3.15-12.85,4.58c-14.58,4.87-29.49,8.72-44.6,11.6h174.17
		c5.74,0,10.4-4.67,10.4-10.4v-79.73c-5.55,4.58-10.9,8.8-16.18,12.78V511.14z"/>
	<path fill="#1155CC" d="M824.33,184.61c0-5.74-4.67-10.4-10.4-10.4H271.25c-5.74,0-10.4,4.67-10.4,10.4v27.3
		c-0.03,0.4-0.11,1.16-0.19,1.99l-0.17,1.71c-0.13,1.34-0.29,3.14-0.36,4.01c-0.05,0.66-0.12,1.51-0.17,1.89
		c-0.09,0.7-0.19,1.98-0.25,2.88c-0.07,1.08-0.1,1.62-0.11,1.93c-0.01,0.12-0.03,0.29-0.05,0.45c-0.08,0.67-0.17,1.69-0.17,2.37
		c-0.01,0.41-0.08,1.43-0.15,2.42l-0.07,0.86c-0.08,1.03-0.18,2.14-0.23,2.52c-0.11,0.77-0.16,1.21-0.18,1.6
		c-0.01,0.21-0.05,0.62-0.09,1.08c-0.03,0.35-0.07,0.75-0.11,1c-0.08,0.41-0.24,1.39-0.24,2.4v0.85c-0.01,0.14-0.02,0.32-0.04,0.47
		c-0.11,0.89-0.22,2.62-0.26,3.41c-0.05,0.96-0.18,2.34-0.26,2.94c-0.14,1.05-0.3,2.57-0.37,3.54c-0.03,0.4-0.09,1.23-0.11,1.89
		c-0.12,0.58-0.22,1.31-0.22,2.05v0.01c-0.03,0.39-0.1,1.15-0.18,2.01c-0.02,0.27-0.24,2.7-0.24,3.88v0.95
		c0,0.93,0.15,1.82,0.44,2.65l0.05,5.91h3.21c0.44,0.82,1,1.57,1.66,2.22c0.18,0.37,0.4,0.73,0.63,1.08
		c0.06,0.08,0.11,0.17,0.17,0.25c0.14,0.34,0.37,0.84,0.67,1.37c0.23,0.53,0.52,1.05,0.86,1.56c0.67,1,1.18,1.5,1.32,1.65l0.47,0.47
		c0.11,0.67,0.28,1.3,0.52,1.9c0.12,0.85,0.37,1.83,0.85,2.79c0.32,0.64,0.89,1.59,1.7,2.4c0.33,0.33,0.68,0.63,1.05,0.9
		c0.28,0.51,0.61,0.99,0.99,1.43c-0.01,0.92,0.1,1.69,0.2,2.2c0.05,0.24,0.11,0.48,0.17,0.72c-0.42,0.61-1.02,1.58-1.39,2.7
		c-0.24,0.71-0.52,1.83-0.52,3.09c0,1.57,0.45,3.14,1.28,4.49c-0.38,0.78-0.61,1.49-0.73,1.98c-0.31,1.24-0.64,3.68,0.62,6.2
		c0.11,0.22,0.26,0.49,0.43,0.77c0.31,0.58,0.69,1.12,1.12,1.6c0.22,0.28,0.46,0.54,0.72,0.8c0.76,0.75,1.59,1.29,2.38,1.68
		c1.02,1.78,2.62,3.09,4.5,3.73c0.06,0.13,0.12,0.25,0.18,0.38l0.02,0.05c0.36,1.62,1.3,3.49,3.47,5.11l0.84,0.63
		c0.68,0.51,1.32,0.91,1.86,1.18c0.29,0.14,0.58,0.27,0.86,0.38c0.65,0.4,1.34,0.73,2.06,0.97c0.63,0.47,1.43,0.93,2.39,1.26
		c0.33,2.25,1.56,4.21,3.42,5.51c0.84,1.66,2.19,2.95,3.82,3.74c0.41,0.81,0.96,1.57,1.65,2.27c0.09,0.2,0.19,0.4,0.3,0.59
		c0.1,0.24,0.21,0.49,0.33,0.73c0.1,0.2,0.42,0.77,0.71,1.27c0.41,0.69,0.77,1.2,1.14,1.65c0.14,1.04,0.48,2.05,0.97,2.98
		c0.56,2.41,2.23,4.66,4.9,5.72c-0.23,1.21-0.19,2.47,0.13,3.68c0.23,0.87,0.6,1.69,1.09,2.43c0.03,0.09,0.06,0.18,0.08,0.25
		c0.5,1.5,1.42,2.85,2.63,3.91c0.26,0.36,0.57,0.72,0.92,1.07c0.79,0.79,1.73,1.41,2.76,1.83c-0.12,2.18,0.61,4.34,2.16,6.02
		c0.09,0.1,0.23,0.27,0.37,0.44c0.73,0.88,2.95,3.54,6.84,3.54h0.19c0.05,0.06,0.1,0.13,0.14,0.19c0.67,1.47,1.76,2.77,3.18,3.72
		c0.22,0.15,0.79,0.51,1.38,0.81c0.88,0.44,2.28,0.97,3.95,0.97h0.32c0.51,0,1.18-0.04,2.04-0.25c-0.42,0.99-0.66,2.07-0.66,3.21
		v1.05c0,0.7,0.05,1.66,0.26,2.64c-1.43,1.97-2.04,4.59-1.68,7.09c-0.12,0.2-0.25,0.43-0.36,0.66c-0.08,0.15-0.15,0.3-0.21,0.46
		c-0.76,0.68-1.41,1.51-1.88,2.47c-0.62,1.24-0.97,2.68-0.97,4.06v0.74c0,0.16,0,0.33,0.01,0.49c-0.98,0.81-1.78,1.85-2.29,3.03
		l-0.02,0.04c-0.72,1.26-1.49,2.78-1.49,4.86c0,0.52,0.04,0.97,0.19,1.99c0.2,1.39,0.72,2.73,1.48,3.9c-0.26,0.86-0.4,1.76-0.4,2.64
		c0,1.36,0.33,2.7,0.93,3.89c0.11,0.83,0.36,1.86,0.88,2.9c0.16,0.32,0.38,0.72,0.68,1.14c-0.16,0.09-0.32,0.19-0.47,0.29
		c-0.79,0.53-2.24,1.69-3.15,3.51l-0.23,0.46c-0.27,0.54-0.48,1.09-0.63,1.64c-0.15,0.14-0.31,0.28-0.47,0.44
		c-0.43,0.43-1.24,1.33-1.83,2.53c-1.33,2.67-1.13,5.9,0.51,8.47c0.04,0.07,0.09,0.16,0.13,0.24l0.09,0.19
		c-1.48,1.56-2.32,3.69-2.32,5.88c0,0.31,0,1.09,0.29,2.24c-0.24,0.98-0.29,1.86-0.29,2.5c0,1.53,0.34,4.42,2.58,6.67
		c1.44,1.44,3.33,2.28,5.37,2.42c0.19,0.08,0.39,0.16,0.58,0.23c0.75,1.2,1.78,2.26,2.98,3.08c0.34,0.7,0.75,1.36,1.2,1.93
		c0.87,1.09,2.36,2.54,4.49,3.25l1.35,0.43h1.32c2.09,0,3.85-0.76,4.97-1.39c0.14-0.08,0.51-0.26,0.65-0.33
		c0.53-0.23,1.54-0.69,2.35-1.23c0.55-0.36,1.06-0.82,1.54-1.32c-2.88-5.17-2.49-10.97-0.16-15.39c2.99-5.69,8.11-8.83,14.42-8.83
		c1.9,0,3.94,0.29,6.23,0.88c0.26,0.07,0.52,0.13,0.78,0.19c-0.64-1.52-1.68-2.83-3.04-3.76c-0.23-0.18-0.47-0.36-0.73-0.51
		c-0.05-0.04-0.09-0.07-0.14-0.11c-1.19-0.95-1.92-1.32-2.18-1.45l-0.39-0.2c-2.22-1.12-4.99-1.19-7.28-0.19
		c-0.05,0.02-0.12,0.04-0.17,0.06c-1.68,0.56-2.87,1.25-3.9,2.27c-1.23,1.23-2.03,2.82-2.34,4.59c-0.67,0.61-1.51,1.47-2.15,2.43
		c-0.01,0.01-0.02,0.03-0.03,0.04c-0.68,0.4-1.36,0.93-2.01,1.63c-0.13-0.01-0.26-0.01-0.39-0.01h-0.53c-1.85,0-3.6,0.62-5.03,1.7
		c-0.31-0.48-0.66-0.92-1.06-1.32c0.42-1.06,0.66-2.11,0.8-2.96c0.48-2.87,0.15-4.42-0.2-5.48l-0.01-0.02
		c-0.05-0.33-0.13-0.66-0.23-0.99c2.28-0.63,4.29-2.22,5.71-4.58c0.84-1.39,1.78-2.97,1.78-5.32v-0.63c0-0.77-0.1-1.52-0.34-2.48
		c-0.23-0.94-0.62-1.83-1.13-2.63v-0.89c0-1.15-0.2-3.38-1.57-5.43l-0.42-0.63c-0.05-0.07-0.1-0.15-0.15-0.22
		c0.04-0.13,0.07-0.25,0.1-0.38c0.2-0.79,0.35-1.8,0.37-1.98c0.16-1.11,0.19-1.52,0.19-1.99c0-0.6-0.07-1.17-0.17-1.68
		c0.75-1.18,1.33-2.72,1.51-4.75c0.14-1.52,0.14-2.03,0.14-2.2v-0.63c0-0.29-0.02-0.6-0.04-0.91c0.75-1.09,1.43-2.64,1.43-4.69
		c0.36-0.74,0.76-1.79,0.98-3.82c0.04-0.33,0.07-0.61,0.09-0.84c1.02-1.34,1.46-2.8,1.77-4.2c0.02-0.09,0.04-0.18,0.06-0.26
		c0.32-0.92,0.51-1.94,0.54-3.04c0.3-0.38,0.59-0.79,0.85-1.24c0.96-1.6,1.43-3.32,1.39-5c0.59-1.19,0.9-2.42,0.92-3.68
		c0.4-1.16,0.63-2.42,0.63-3.49l0-0.05c0.21-1.29,0.21-1.92,0.21-2.16c0-1.23-0.27-2.51-0.79-3.68c-0.77-2.15-2.33-3.94-4.3-4.92
		c-0.14-0.07-0.43-0.2-0.76-0.35c-1.7-1.02-3.76-1.44-6.02-1.03c-0.77,0.04-1.54,0.17-2.28,0.39c-0.92,0.07-1.76,0.27-2.47,0.51
		c-0.32-0.88-0.88-2-1.77-2.98c-0.85-1.44-2.33-2.9-4.9-3.78c-0.73-0.37-1.52-0.63-2.36-0.77c-0.09-0.02-0.18-0.05-0.26-0.07
		c-0.43-0.57-0.69-0.86-0.95-1.12c-0.83-0.84-1.8-1.48-3.13-2.03c-0.45-0.62-0.98-1.18-1.57-1.65c0.13-0.59,0.2-1.18,0.2-1.78
		c0-1.67-0.53-3.07-0.97-3.95c-0.6-1.19-1.39-2.07-1.82-2.51c-0.27-0.27-0.74-0.7-1.37-1.14c-0.24-0.47-0.46-0.87-0.69-1.24
		c-0.61-1.08-1.52-2.09-2.77-2.9c-0.05-0.16-0.11-0.32-0.18-0.47c-0.23-0.98-0.64-1.9-1.19-2.71c-0.56-0.98-1.22-1.7-1.58-2.06
		c-0.12-0.12-0.24-0.23-0.37-0.35c-0.46-1.4-1.29-2.69-2.45-3.8c-0.41-0.86-1.11-2.1-2.13-3.12c-0.54-0.54-1.19-1.07-1.62-1.4
		c-0.01-0.01-0.03-0.02-0.04-0.03c-0.3-0.6-0.66-1.17-1.09-1.69c-0.36-1.47-0.96-2.71-1.83-3.74c-0.46-1.3-1.2-2.5-2.16-3.47
		c-1.38-1.38-3.16-2.29-5.03-2.58c-0.33-0.12-0.68-0.23-1.02-0.31c-0.87-0.58-1.85-1.01-2.91-1.25c-0.43-1.73-1.36-3.27-2.66-4.42
		c-0.24-0.32-0.49-0.61-0.77-0.89l-0.24-0.24c-0.13-0.13-0.42-0.42-1.07-0.92c0.11-0.58,0.17-1.17,0.17-1.78v-0.42
		c0-2.13-0.83-4.08-2.19-5.54c0.84-1.75,1.21-3.78,0.97-5.68c-0.02-0.15-0.04-0.31-0.05-0.44c-0.06-1.68-0.61-3.14-1.16-4.19
		c0.12-0.87,0.12-1.33,0.12-1.53c0-2.31-0.98-4.13-1.57-5.02c-0.57-0.86-1.36-1.68-1.71-2.04c-0.11-0.33-0.25-0.66-0.42-1
		c-0.57-1.14-1.37-2.05-1.94-2.62l-0.12-0.12c-0.03-0.52-0.1-1-0.19-1.43c-0.36-1.78-1.28-3.46-2.59-4.77
		c-0.68-1.08-1.6-1.96-2.66-2.61c-0.18-0.35-0.38-0.68-0.6-1c-0.44-1.3-1.11-2.39-2.01-3.31c-0.29-0.97-0.76-1.89-1.39-2.74
		c-0.01-0.01-0.01-0.02-0.02-0.04c0.01-0.13,0.02-0.26,0.03-0.4c0.15-1.69,0.21-2.34,0.23-2.69c0.13-0.7,0.21-1.46,0.22-2.14
		c0.01-0.28,0.05-0.86,0.09-1.42c0.05-0.64,0.17-1.86,0.26-2.56c0.14-1.08,0.31-2.9,0.38-4.22c0.06-1.06,0.14-2.05,0.16-2.26
		c0.08-0.62,0.17-1.61,0.17-2.37v-0.59c0.15-0.9,0.26-2.06,0.29-2.42c0.06-0.69,0.09-1.11,0.11-1.39c0.01-0.1,0.03-0.23,0.05-0.35
		c0.14-0.97,0.32-3.3,0.34-3.57l0.07-0.87c0.05-0.62,0.2-2.69,0.2-3.48c0-0.16,0.02-0.38,0.04-0.54c0.13-1.05,0.16-1.57,0.17-1.87
		c0.01-0.26,0.05-0.84,0.09-1.44c0.05-0.7,0.12-1.59,0.17-1.95c0.07-0.55,0.19-1.79,0.25-2.75c0.05-0.76,0.2-2.36,0.32-3.55
		l0.17-1.72c0.27-2.7,0.27-2.96,0.27-3.32v-21.81h531.11v148.86c5.64,2.63,11.02,5.55,16.18,8.71V184.61z M332.55,414.73
		C332.55,414.73,332.55,414.73,332.55,414.73c0.14-0.16,0.28-0.32,0.43-0.47C332.84,414.41,332.69,414.56,332.55,414.73z
		 M354.12,367.88c-0.42-0.55-0.92-1.05-1.47-1.49C353.2,366.83,353.69,367.33,354.12,367.88z M340.36,365.95L340.36,365.95
		c-0.06-0.48-0.17-1.05-0.38-1.67C340.14,364.75,340.28,365.32,340.36,365.95z M339.86,374.78c0.01,0.05,0.04,0.1,0.05,0.15
		c-0.01-0.05-0.05-0.09-0.06-0.14C339.85,374.79,339.86,374.79,339.86,374.78z M339.76,374.34c0,0.01-0.01,0.01-0.01,0.02
		c-0.01-0.07-0.01-0.14-0.02-0.21C339.74,374.22,339.74,374.27,339.76,374.34z M324.51,369.03L324.51,369.03
		c-0.18-0.65-0.28-1.35-0.29-2.11C324.23,367.69,324.34,368.4,324.51,369.03z M322.4,345.35c-0.07-0.43-0.18-0.87-0.33-1.3
		C322.22,344.48,322.33,344.92,322.4,345.35z M306.46,348.09c0.09,0.5,0.23,1,0.41,1.48C306.68,349.11,306.54,348.61,306.46,348.09
		C306.45,348.09,306.45,348.09,306.46,348.09z M306.37,347.45L306.37,347.45c-0.03-0.26-0.04-0.52-0.04-0.79
		C306.33,346.92,306.34,347.19,306.37,347.45z M279.51,311.36c-0.45-0.08-0.85-0.17-1.17-0.28l0,0
		C278.73,311.2,279.12,311.29,279.51,311.36z M275.74,265.25c-0.24-0.35-0.51-0.69-0.81-1.01l0-0.01
		C275.23,264.56,275.5,264.9,275.74,265.25z"/>
</g>
</svg>
