<svg xmlns="http://www.w3.org/2000/svg" viewBox="0 0 73.33 72.87"><defs><style>.fa1dcee6-4082-4e75-a09f-3f0f9206a0ea{fill:#a9862e;}.f83e9123-debd-4a97-8555-f26026e1acf2{fill:#fff;}</style></defs><title>Asset 2</title><g id="abce38b7-54b0-492b-bc2f-88ea3fa9ef43" data-name="Layer 2"><g id="add85efb-1330-4f3c-8dd7-0df3e7237777" data-name="Layer 2"><path class="fa1dcee6-4082-4e75-a09f-3f0f9206a0ea" d="M34.74,1.18.23,69.75a2.15,2.15,0,0,0,1.92,3.12h69a2.15,2.15,0,0,0,1.92-3.12L38.58,1.18A2.15,2.15,0,0,0,34.74,1.18Z"/><path class="f83e9123-debd-4a97-8555-f26026e1acf2" d="M32.15,58.07a3.78,3.78,0,0,1,1.16-2.91,4.27,4.27,0,0,1,3-1.08,4.43,4.43,0,0,1,3.15,1.08,3.77,3.77,0,0,1,1.15,2.91,3.89,3.89,0,0,1-1.15,3,4.39,4.39,0,0,1-3.15,1.1,4.24,4.24,0,0,1-3-1.1A3.9,3.9,0,0,1,32.15,58.07Zm.74-33.32h7V42l-1.37,8.57H34.25L32.89,42Z"/></g></g></svg>