<?xml version="1.0" encoding="utf-8"?>
<!-- Generator: Adobe Illustrator 23.0.4, SVG Export Plug-In . SVG Version: 6.00 Build 0)  -->
<svg version="1.1" id="Layer_1" xmlns="http://www.w3.org/2000/svg" xmlns:xlink="http://www.w3.org/1999/xlink" x="0px" y="0px"
	 viewBox="0 0 80 80" style="enable-background:new 0 0 80 80;" xml:space="preserve">
<style type="text/css">
	.st0{fill:#121212;}
	.st1{fill:none;stroke:#FCD105;stroke-width:2.29;stroke-miterlimit:10;}
</style>
<title>Artboard 1</title>
<path class="st0" d="M40,4c19.9,0,36,16.1,36,36S59.9,76,40,76S4,59.9,4,40S20.1,4,40,4 M40,0C17.9,0,0,17.9,0,40s17.9,40,40,40
	s40-17.9,40-40S62.1,0,40,0z"/>
<path class="st0" d="M22.5,18.8h24.9c0.3,0,0.6,0.1,0.8,0.4l9.4,10c0.2,0.2,0.4,0.6,0.3,0.9v30.3c0,0.4-0.3,0.8-0.8,0.8H22.8
	c-0.4,0-0.8-0.3-0.8-0.8V19.3C22,19.1,22.2,18.8,22.5,18.8z"/>
<path class="st1" d="M45,18.8v11.8c0,0.3,0.3,0.6,0.6,0.6H58"/>
<line class="st1" x1="28.9" y1="39.1" x2="51.1" y2="39.1"/>
<line class="st1" x1="28.9" y1="44" x2="51.1" y2="44"/>
<line class="st1" x1="28.9" y1="48.9" x2="51.1" y2="48.9"/>
<line class="st1" x1="28.9" y1="53.8" x2="51.1" y2="53.8"/>
</svg>
