<?xml version="1.0" encoding="UTF-8"?>
<svg width="25px" height="25px" viewBox="0 0 25 25" version="1.1" xmlns="http://www.w3.org/2000/svg" xmlns:xlink="http://www.w3.org/1999/xlink">
    <!-- Generator: Sketch 57.1 (83088) - https://sketch.com -->
    <title>icon / dashboard</title>
    <desc>Created with Sketch.</desc>
    <g id="icon-/-dashboard" stroke="none" stroke-width="1" fill="none" fill-rule="evenodd">
        <g id="iconfinder_dashboard_3118994" fill="#000000" fill-rule="nonzero">
            <path d="M12.5,0 C5.59644063,0 0,5.59644063 0,12.5 C0,19.4035594 5.59644063,25 12.5,25 C19.4035594,25 25,19.4035594 25,12.5 C25,9.18479388 23.6830395,6.00536997 21.3388348,3.66116524 C18.99463,1.3169605 15.8152061,0 12.5,0 Z M12.5,24 C8.70965833,23.9980883 5.16397744,22.1274904 3.0226,19 L21.9774,19 C19.8360226,22.1274904 16.2903417,23.9980883 12.5,24 Z M11.0921,18.000009 C11.3009855,17.4011826 11.8657954,17.000009 12.5,17.000009 C13.1342046,17.000009 13.6990145,17.4011826 13.9079,18.000009 L11.0921,18.000009 Z M22.5,18 L14.95,18 C14.7480678,17.014957 13.9759923,16.2465449 12.99,16.0493 C12.9942399,16.0330636 12.9975783,16.0166052 13,16 L13,7.5 C13,7.22385763 12.7761424,7 12.5,7 C12.2238576,7 12,7.22385763 12,7.5 L12,16 C12.0024217,16.0166052 12.0057601,16.0330636 12.01,16.0493 C11.0240077,16.2465449 10.2519322,17.014957 10.05,18 L2.5,18 C2.47099026,18.0030889 2.44233246,18.0088807 2.4144,18.0173 C0.109695653,13.8047545 0.665402738,8.60359838 3.8080848,4.97306793 C6.95076686,1.34253747 12.018599,0.0471947378 16.5179472,1.72441495 C21.0172954,3.40163516 24.0006312,7.69820851 24.0000048,12.5 C24.001777,14.4290025 23.5151957,16.3270617 22.5856,18.0173 C22.5576675,18.0088807 22.5290097,18.0030889 22.5,18 Z M22,12.5 C22,12.7761424 21.7761424,13 21.5,13 C21.2238576,13 21,12.7761424 21,12.5 C21,7.80557963 17.1944204,4 12.5,4 C7.80557963,4 4,7.80557963 4,12.5 C4,12.7761424 3.77614237,13 3.5,13 C3.22385763,13 3,12.7761424 3,12.5 C3,7.25329488 7.25329488,3 12.5,3 C17.7467051,3 22,7.25329488 22,12.5 L22,12.5 Z" id="Shape"></path>
        </g>
    </g>
</svg>