<svg xmlns="http://www.w3.org/2000/svg" viewBox="0 0 24.97 24.97"><defs><style>.ab1796f2-c642-4abd-90ff-80e4673b06bf{fill:none;stroke:#000;stroke-linecap:round;stroke-miterlimit:10;stroke-width:0.75px;}</style></defs><title>Asset 3</title><g id="b6a76ef5-2290-49e3-9418-bc2d8ad5b323" data-name="Layer 2"><g id="acc71473-7453-4e68-b70b-988c3c11e558" data-name="Layer 2"><path d="M12.48,1A11.49,11.49,0,1,1,1,12.48,11.5,11.5,0,0,1,12.48,1m0-1A12.49,12.49,0,1,0,25,12.48,12.48,12.48,0,0,0,12.48,0Z"/><path d="M11.31,11.3l-5,7.29,7.35-4.92,5-7.29ZM13.56,13a1.45,1.45,0,0,1-1.81.65,1.18,1.18,0,0,1-.34-1.74,1.45,1.45,0,0,1,1.81-.65A1.18,1.18,0,0,1,13.56,13Z"/><polygon points="12.48 3.16 13.98 0.56 10.98 0.56 12.48 3.16"/><polygon points="12.48 21.61 10.75 24.61 14.22 24.61 12.48 21.61"/><polygon points="21.81 12.48 24.41 13.98 24.41 10.98 21.81 12.48"/><polygon points="3.16 12.48 0.56 10.98 0.56 13.98 3.16 12.48"/><polygon points="17.84 3.3 19.14 2.56 17.85 1.8 17.84 3.3"/><polygon points="7.13 21.73 5.83 22.48 7.12 23.23 7.13 21.73"/><polygon points="21.81 7.35 23.31 7.37 22.57 6.06 21.81 7.35"/><polygon points="3.16 17.69 1.66 17.67 2.4 18.98 3.16 17.69"/><polygon points="7.13 3.3 5.83 2.56 7.12 1.8 7.13 3.3"/><polygon points="17.84 21.73 19.14 22.48 17.85 23.23 17.84 21.73"/><polygon points="3.16 7.35 1.66 7.37 2.4 6.06 3.16 7.35"/><polygon points="21.81 17.69 23.31 17.67 22.57 18.98 21.81 17.69"/><line class="ab1796f2-c642-4abd-90ff-80e4673b06bf" x1="11.32" y1="11.34" x2="10.69" y2="10.74"/><line class="ab1796f2-c642-4abd-90ff-80e4673b06bf" x1="13.72" y1="13.65" x2="14.35" y2="14.25"/></g></g></svg>