<?xml version="1.0" encoding="utf-8"?>
<!-- Generator: Adobe Illustrator 23.0.4, SVG Export Plug-In . SVG Version: 6.00 Build 0)  -->
<svg version="1.1" id="Layer_1" xmlns="http://www.w3.org/2000/svg" xmlns:xlink="http://www.w3.org/1999/xlink" x="0px" y="0px"
	 viewBox="0 0 80 80" style="enable-background:new 0 0 80 80;" xml:space="preserve">
<style type="text/css">
	.st0{fill:#121212;}
</style>
<title>Artboard 1</title>
<path class="st0" d="M40,4c19.9,0,36,16.1,36,36S59.9,76,40,76S4,59.9,4,40S20.1,4,40,4 M40,0C17.9,0,0,17.9,0,40s17.9,40,40,40
	s40-17.9,40-40S62.1,0,40,0z"/>
<rect x="34.3" y="16.7" class="st0" width="11.5" height="8.7"/>
<rect x="34.3" y="54.6" class="st0" width="11.5" height="8.7"/>
<rect x="52" y="24.1" transform="matrix(0.86 -0.5102 0.5102 0.86 -7.3377 32.9307)" class="st0" width="8.7" height="11.5"/>
<rect x="19.3" y="43.5" transform="matrix(0.86 -0.5102 0.5102 0.86 -21.8169 18.9726)" class="st0" width="8.7" height="11.5"/>
<rect x="17.9" y="25.5" transform="matrix(0.5102 -0.86 0.86 0.5102 -14.0767 34.9878)" class="st0" width="11.5" height="8.7"/>
<rect x="50.6" y="44.8" transform="matrix(0.5102 -0.86 0.86 0.5102 -14.6943 72.4931)" class="st0" width="11.5" height="8.7"/>
<path class="st0" d="M40,32.5c3.9,0,7,3.1,7,7s-3.1,7-7,7s-7-3.1-7-7S36.1,32.5,40,32.5 M40,23.2c-9,0-16.3,7.3-16.3,16.3
	S31,55.9,40,55.9s16.3-7.3,16.3-16.3S49,23.2,40,23.2L40,23.2z"/>
</svg>
