<?xml version="1.0" encoding="UTF-8"?>
<svg width="22px" height="22px" viewBox="0 0 22 22" version="1.1" xmlns="http://www.w3.org/2000/svg" xmlns:xlink="http://www.w3.org/1999/xlink">
    <!-- Generator: Sketch 57.1 (83088) - https://sketch.com -->
    <title>icon / gear</title>
    <desc>Created with Sketch.</desc>
    <g id="icon-/-gear" stroke="none" stroke-width="1" fill="none" fill-rule="evenodd">
        <path d="M12.5990019,3.11980952 C13.0819962,3.2220144 13.5486057,3.36770762 13.994464,3.5525181 C14.4485524,3.74074297 14.8816255,3.96978392 15.2891074,4.23497067 L17.0298564,2.49420914 L17.0298399,2.49419264 C17.1180544,2.40599485 17.2610913,2.40599485 17.3493059,2.49419264 L17.3506587,2.49557847 L19.3800686,4.52498838 L19.3800851,4.52497188 C19.4682829,4.61318643 19.4682829,4.75622331 19.3800851,4.84443786 L19.3786993,4.84579069 L17.6393038,6.58516936 C17.9045082,6.99271789 18.1335328,7.42583755 18.3217732,7.87994269 C18.5065665,8.32576746 18.6522433,8.79232669 18.7544482,9.27527069 L21.2153808,9.27527069 C21.3401216,9.27527069 21.4412869,9.37641957 21.4412869,9.50116041 L21.4412869,12.3730865 C21.4412869,12.4978273 21.3401216,12.5989762 21.2153808,12.5989762 L18.7544482,12.5989762 C18.6522433,13.081937 18.5065501,13.5484836 18.3217229,13.9943042 C18.1334649,14.4484094 17.904424,14.8814993 17.6392033,15.2889979 L19.3800654,17.0298265 L19.3800819,17.02981 C19.4682797,17.1180246 19.4682797,17.2610614 19.3800819,17.349276 L19.378696,17.3506288 L17.3492861,19.3800387 L17.3493026,19.3800552 C17.2610881,19.468253 17.1180512,19.468253 17.0298366,19.3800552 L17.0284838,19.3786694 L15.2889752,17.6391273 C14.8813936,17.9042985 14.4482903,18.1333227 13.9941684,18.3215296 C13.5483771,18.5062902 13.0818808,18.6519172 12.5990038,18.7540705 L12.5990038,21.2153467 C12.5990038,21.3400876 12.4978549,21.4412528 12.3731141,21.4412528 L9.50118801,21.4412528 C9.37644717,21.4412528 9.27529829,21.3400876 9.27529829,21.2153467 L9.27529829,18.7544142 C8.79233753,18.6522093 8.32579086,18.5065161 7.87997029,18.3216888 C7.42586515,18.1334308 6.99277524,17.9043899 6.58527658,17.6391692 L4.84444801,19.3800313 L4.8444645,19.3800478 C4.75624995,19.4682456 4.61321308,19.4682456 4.52499852,19.3800478 L4.52364569,19.378662 L2.49423579,17.3492521 L2.49421929,17.3492686 C2.4060215,17.261054 2.4060215,17.1180171 2.49421929,17.0298026 L2.49560512,17.0284497 L4.23514721,15.2889412 C3.96997597,14.8813595 3.74095178,14.4482562 3.55274493,13.9941343 C3.36798432,13.5483431 3.22235731,13.0818467 3.12020397,12.5989697 L0.658927783,12.5989697 C0.534186945,12.5989697 0.433021726,12.4978209 0.433021726,12.37308 L0.433021726,9.50115394 C0.433021726,9.3764131 0.534186945,9.27526422 0.658927783,9.27526422 L3.11984359,9.27526422 C3.22204847,8.79226994 3.36774169,8.32566041 3.55255216,7.87980213 C3.74077704,7.42571375 3.96981799,6.9926406 4.23500474,6.5851587 L2.49424321,4.84440975 L2.49422671,4.84442624 C2.40602892,4.75621169 2.40602892,4.61317482 2.49422671,4.52496026 L2.49561254,4.52360743 L4.52502245,2.49419753 L4.52500595,2.49418103 C4.6132205,2.40598324 4.75625738,2.40598324 4.84447193,2.49418103 L4.84582476,2.49556686 L6.58520343,4.23496229 C6.99275196,3.96975794 7.42587162,3.74073333 7.87997676,3.55249295 C8.32580152,3.36769966 8.79236076,3.22202278 9.27530476,3.1198179 L9.27530476,0.658885333 C9.27530476,0.534144495 9.37645364,0.432979276 9.50119448,0.432979276 L12.3731206,0.432979276 C12.4978614,0.432979276 12.5990103,0.534144495 12.5990103,0.658885333 L12.5990103,3.11980114 L12.5990019,3.11980952 Z M13.8215147,3.96899276 C13.3517204,3.77426762 12.858317,3.62567082 12.3470956,3.52892571 C12.234596,3.51600782 12.1472066,3.42046823 12.1472066,3.30452069 L12.1472066,0.884801448 L9.72708922,0.884801448 L9.72708922,3.30212792 C9.72835956,3.40981017 9.65220499,3.50609181 9.54272461,3.52656606 L9.54262562,3.52602163 C9.02596086,3.62268292 8.52739057,3.77228627 8.05291134,3.96897591 C7.57343286,4.16772643 7.11897991,4.41445286 6.69557838,4.70308448 C6.60693515,4.77280479 6.47813541,4.76681618 6.39640478,4.68508521 L6.39642128,4.68506872 L4.68472909,2.97335976 L2.97338052,4.68470834 L4.68235309,6.39368091 C4.76028924,6.46881237 4.77495591,6.59142529 4.71175242,6.68374776 L4.71135647,6.6834673 C4.41917804,7.11023797 4.16964524,7.5687473 3.96901362,8.05276406 C3.77428847,8.52255835 3.62569167,9.01596178 3.52894657,9.52718311 C3.51602867,9.63968273 3.42048908,9.72707218 3.30454154,9.72707218 L0.884822303,9.72707218 L0.884822303,12.1471895 L3.30173811,12.1471895 C3.40975015,12.1455562 3.50644455,12.2218097 3.52696783,12.3315705 L3.5264234,12.3316694 C3.62303524,12.8482714 3.77258915,13.3467872 3.96921006,13.8211868 C4.16797734,14.3007155 4.41467025,14.7551853 4.70323482,15.1785868 C4.77295513,15.26723 4.76696652,15.3960298 4.68523556,15.4777604 L4.68521906,15.4777439 L2.97337601,17.1895534 L4.68472458,18.900902 L6.39338287,17.1922102 C6.46851433,17.1138944 6.59140759,17.0990794 6.68387841,17.1624149 L6.68361444,17.1628108 C7.11038511,17.4550056 7.56891121,17.7045682 8.05291121,17.9052333 C8.52268873,18.0999748 9.0160293,18.2485884 9.52720035,18.3453171 C9.63969997,18.358235 9.72708941,18.4537746 9.72708941,18.5697221 L9.72708941,20.9894581 L12.1472067,20.9894581 L12.1472067,18.5725423 C12.1455735,18.4645303 12.221827,18.3678359 12.3315877,18.3473126 L12.3316867,18.3478571 C12.8482886,18.2512452 13.3468044,18.1016913 13.821204,17.9050704 C14.3007328,17.7063031 14.7552025,17.4596102 15.178604,17.1710456 C15.2672473,17.1013253 15.396047,17.1073139 15.4777776,17.1890449 L15.4777611,17.1890614 L17.1895706,18.9009044 L18.9009192,17.1895559 L17.1922274,15.4808976 C17.1139116,15.4057661 17.0990966,15.2828729 17.1624321,15.190402 L17.1628281,15.190666 C17.4550228,14.7638953 17.7045854,14.3053692 17.9052505,13.8213692 C18.099992,13.3515917 18.2486056,12.8582511 18.3453344,12.3470801 C18.3582523,12.2345805 18.4537918,12.147191 18.5697394,12.147191 L20.9894754,12.147191 L20.9894754,9.7270737 L18.5721489,9.7270737 C18.4644667,9.72834404 18.368185,9.65218947 18.3477108,9.54270909 L18.3482552,9.5426101 C18.2515939,9.02594534 18.1019906,8.52737505 17.9053009,8.05289582 C17.7065504,7.57341734 17.459824,7.11896439 17.1711923,6.69556286 C17.101472,6.60691963 17.1074607,6.47811989 17.1891916,6.39638926 L17.1892081,6.39640576 L18.9009171,4.68471357 L17.1895685,2.973365 L15.4805959,4.68233757 C15.4054645,4.76027372 15.2828515,4.77494039 15.1905291,4.7117369 L15.1908095,4.71134095 C14.7640389,4.41916252 14.3055295,4.16962972 13.8215128,3.9689981 L13.8215147,3.96899276 Z" id="_254553368" stroke="#1F2225" stroke-width="0.5" fill="#000000" fill-rule="nonzero"></path>
        <path d="M10.9371429,6.56911619 C12.1433086,6.56911619 13.2353215,7.05803162 14.025771,7.8484979 C14.8162373,8.63894743 15.3051528,9.73096038 15.3051528,10.9371261 C15.3051528,12.1432918 14.8162373,13.2353048 14.025771,14.0257543 C13.2353215,14.8162206 12.1433086,15.305136 10.9371429,15.305136 C9.73097714,15.305136 8.63896419,14.8162206 7.84851467,14.0257543 C7.05804838,13.2353048 6.56913295,12.1432918 6.56913295,10.9371261 C6.56913295,9.73096038 7.05804838,8.63894743 7.84851467,7.8484979 C8.63896419,7.05803162 9.73097714,6.56911619 10.9371429,6.56911619 Z M13.7063394,8.16792952 C12.997688,7.45926133 12.0185832,7.02091238 10.9371429,7.02091238 C9.85570248,7.02091238 8.8766019,7.45926133 8.16794629,8.16792952 C7.4592781,8.87658095 7.02092914,9.85568571 7.02092914,10.9371261 C7.02092914,12.0185665 7.4592781,12.997667 8.16794629,13.7063227 C8.87659771,14.4149909 9.85570248,14.8533398 10.9371429,14.8533398 C12.0185832,14.8533398 12.9976838,14.4149909 13.7063394,13.7063227 C14.4150076,12.9976712 14.8533566,12.0185665 14.8533566,10.9371261 C14.8533566,9.85568571 14.4150076,8.87658514 13.7063394,8.16792952 Z" id="_254553344" stroke="#1F2225" stroke-width="0.5" fill="#000000" fill-rule="nonzero"></path>
    </g>
</svg>