<?xml version="1.0" encoding="UTF-8"?>
<svg width="22px" height="24px" viewBox="0 0 22 24" version="1.1" xmlns="http://www.w3.org/2000/svg" xmlns:xlink="http://www.w3.org/1999/xlink">
    <!-- Generator: Sketch 57.1 (83088) - https://sketch.com -->
    <title>icon / structure</title>
    <desc>Created with Sketch.</desc>
    <g id="icon-/-structure" stroke="none" stroke-width="1" fill="none" fill-rule="evenodd">
        <g id="iconfinder_structure-blocks-2-93_1518849-2" transform="translate(0.000000, 1.000000)" fill="#282828" fill-rule="nonzero">
            <g id="iconfinder_structure-blocks-2-93_1518849">
                <path d="M5.67053254,15.3473054 C5.61132674,15.3473054 5.55294171,15.3332893 5.5,15.3064671 L0.235621302,12.6295808 C0.107090127,12.5643307 0.0259460446,12.431268 0.0259460446,12.2857485 C0.0259460446,12.140229 0.107090127,12.0071663 0.235621302,11.9419162 L5.16023669,9.43892216 C5.48149767,9.27647481 5.85956741,9.27647481 6.1808284,9.43892216 L11.1054438,11.9419162 C11.233975,12.0071663 11.315119,12.140229 11.315119,12.2857485 C11.315119,12.431268 11.233975,12.5643307 11.1054438,12.6295808 L5.84106509,15.3064671 C5.78812338,15.3332893 5.72973835,15.3473054 5.67053254,15.3473054 Z M1.25360947,12.2857485 L5.67053254,14.5318563 L10.0874556,12.2857485 L5.83846154,10.1239521 C5.73236574,10.0701363 5.60739757,10.0701363 5.50130178,10.1239521 L1.25360947,12.2857485 Z" id="Shape"></path>
                <path d="M5.67053254,21.8840724 C5.51327642,21.8842381 5.35815364,21.8472484 5.21751479,21.7760479 L0.581893491,19.4179641 C0.240247856,19.2452535 0.0248601214,18.8915034 0.0260307167,18.5050299 L0.0260307167,12.2857485 C0.0260307167,12.0733008 0.196220282,11.9010778 0.406153846,11.9010778 C0.61608741,11.9010778 0.786272189,12.0733008 0.786272189,12.2857485 L0.786272189,18.5050299 C0.785740836,18.6003298 0.838733758,18.6876661 0.92295858,18.7302994 L5.55727811,21.0870659 C5.6277393,21.1227885 5.71072223,21.1227885 5.78118343,21.0870659 L10.4142012,18.7302994 C10.4989321,18.6880367 10.552476,18.6006247 10.5521893,18.5050299 L10.5521893,12.2857485 C10.5521893,12.0733008 10.7223741,11.9010778 10.9323077,11.9010778 C11.1422413,11.9010778 11.3124313,12.0733008 11.3124313,12.2857485 L11.3124313,18.5050299 C11.313664,18.8918856 11.0976336,19.2458621 10.7552663,19.4179641 L6.1183432,21.7760479 C5.97926212,21.8464099 5.82602337,21.8833752 5.67053254,21.8840724 L5.67053254,21.8840724 Z" id="Path"></path>
                <path d="M5.67053254,21.4506587 C5.56971889,21.4506587 5.4730343,21.410131 5.40174829,21.3379913 C5.33046227,21.2658515 5.2904142,21.168009 5.2904142,21.065988 L5.2904142,14.9626347 C5.2904142,14.750187 5.46059899,14.5779641 5.67053254,14.5779641 C5.8804661,14.5779641 6.05065089,14.750187 6.05065089,14.9626347 L6.05065089,21.065988 C6.05065089,21.2784358 5.88046611,21.4506587 5.67053254,21.4506587 Z" id="Path"></path>
                <path d="M16.2826036,15.3473069 C16.2233977,15.3473069 16.1650127,15.3332893 16.112071,15.3064671 L10.8476923,12.6295808 C10.7191611,12.5643307 10.6380171,12.431268 10.6380171,12.2857485 C10.6380171,12.140229 10.7191611,12.0071663 10.8476923,11.9419162 L15.7723077,9.43892216 C16.0936169,9.2766816 16.4715902,9.2766816 16.7928994,9.43892216 L21.7175148,11.9419162 C21.846046,12.0071663 21.9271901,12.140229 21.9271901,12.2857485 C21.9271901,12.431268 21.846046,12.5643307 21.7175148,12.6295808 L16.4544379,15.3064671 C16.401103,15.3334891 16.3422491,15.3474763 16.2826036,15.3473069 Z M11.8656805,12.2844311 L16.2826036,14.5305389 L20.6982249,12.2857485 L16.4492308,10.1252695 C16.343184,10.0712445 16.2181178,10.0712445 16.112071,10.1252695 L11.8656805,12.2844311 Z" id="Shape"></path>
                <path d="M16.2826036,21.8840724 C16.1253474,21.8842381 15.9702246,21.8472484 15.8295858,21.7760479 L11.1952663,19.4179641 C10.8534049,19.2454922 10.6379252,18.8915911 10.6394007,18.5050299 L10.6394007,12.2857485 C10.6394007,12.0733008 10.8095931,11.9010778 11.0195266,11.9010778 C11.2294602,11.9010778 11.399645,12.0733008 11.399645,12.2857485 L11.399645,18.5050299 C11.3991136,18.6003298 11.4521065,18.6876661 11.5363314,18.7302994 L16.1706509,21.0883832 C16.2411603,21.123899 16.3240468,21.123899 16.3945562,21.0883832 L21.0288757,18.7316168 C21.1136066,18.6893541 21.1671506,18.6019421 21.1668639,18.5063473 L21.1668639,12.2857485 C21.1668639,12.0733008 21.3370487,11.9010778 21.5469822,11.9010778 C21.7569158,11.9010778 21.9271059,12.0733008 21.9271059,12.2857485 L21.9271059,18.5050299 C21.9283385,18.8918856 21.7123082,19.2458621 21.3699408,19.4179641 L16.7356213,21.7747305 C16.5950755,21.8463413 16.4399582,21.8837807 16.2826036,21.8840724 Z" id="Path"></path>
                <path d="M16.2826036,21.4506587 C16.07267,21.4506587 15.9024852,21.2784358 15.9024852,21.065988 L15.9024852,14.9626347 C15.9024852,14.750187 16.07267,14.5779641 16.2826036,14.5779641 C16.4925371,14.5779641 16.6627219,14.750187 16.6627219,14.9626347 L16.6627219,21.065988 C16.6627219,21.2784358 16.4925371,21.4506587 16.2826036,21.4506587 L16.2826036,21.4506587 Z" id="Path"></path>
                <path d="M11.0195266,6.13368488 C10.9603208,6.13361836 10.9019358,6.11963659 10.8489941,6.09281437 L5.58461538,3.41461078 C5.45608421,3.34936061 5.37494013,3.2162979 5.37494013,3.07077844 C5.37494013,2.92525899 5.45608421,2.79219627 5.58461538,2.72694611 L10.5092308,0.223952096 C10.8305399,0.061711541 11.2085133,0.061711541 11.5298225,0.223952096 L16.4544379,2.72694611 C16.582969,2.79219627 16.6641131,2.92525899 16.6641131,3.07077844 C16.6641131,3.2162979 16.582969,3.34936061 16.4544379,3.41461078 L11.1952663,6.09281437 C11.1407536,6.12044532 11.0804899,6.13444938 11.0195266,6.13368488 Z M6.60130178,3.07077844 L11.0182249,5.31820359 L15.4351479,3.07077844 L11.1861538,0.910299401 C11.0800096,0.85669101 10.9551383,0.85669101 10.8489941,0.910299401 L6.60130178,3.07077844 Z" id="Shape"></path>
                <path d="M11.0195266,12.6691046 C10.8618308,12.6694734 10.7062391,12.6324783 10.5652071,12.5610778 L5.93088757,10.2043114 C5.58924194,10.0316008 5.3738542,9.67785071 5.3750248,9.29137725 L5.3750248,3.07077844 C5.3750248,2.8583307 5.54521436,2.68610778 5.75514793,2.68610778 C5.96508149,2.68610778 6.13526627,2.8583307 6.13526627,3.07077844 L6.13526627,9.29137725 C6.13473492,9.38667708 6.18772784,9.47401341 6.27195266,9.51664671 L10.9062722,11.8734132 C10.9767334,11.9091358 11.0597163,11.9091358 11.1301775,11.8734132 L15.764497,9.51664671 C15.8492279,9.474384 15.9027719,9.38697203 15.9024852,9.29137725 L15.9024852,3.07077844 C15.9024852,2.8583307 16.07267,2.68610778 16.2826036,2.68610778 C16.4925371,2.68610778 16.6627249,2.8583307 16.6627249,3.07077844 L16.6627249,9.29137725 C16.6636516,9.6781448 16.4477137,10.03197 16.1055621,10.2043114 L11.4712426,12.5610778 C11.3309807,12.6320334 11.1763374,12.6691046 11.0195266,12.6691046 Z" id="Path"></path>
                <path d="M11.0195266,12.237006 C10.8111088,12.237006 10.6415496,12.0671902 10.6394083,11.8562874 L10.6394083,5.74898204 C10.6394083,5.5365343 10.8095931,5.36431138 11.0195266,5.36431138 C11.2294602,5.36431138 11.399645,5.5365343 11.399645,5.74898204 L11.399645,11.8562874 C11.3975037,12.0671902 11.2279445,12.237006 11.0195266,12.237006 Z" id="Path"></path>
            </g>
        </g>
    </g>
</svg>