<?xml version="1.0" encoding="utf-8"?>
<!-- Generator: Adobe Illustrator 23.0.4, SVG Export Plug-In . SVG Version: 6.00 Build 0)  -->
<svg version="1.1" id="Layer_1" xmlns="http://www.w3.org/2000/svg" xmlns:xlink="http://www.w3.org/1999/xlink" x="0px" y="0px"
	 viewBox="0 0 80 80" style="enable-background:new 0 0 80 80;" xml:space="preserve">
<style type="text/css">
	.st0{fill:#121212;}
	.st1{fill:#FCD105;}
</style>
<circle class="st0" cx="39.8" cy="40" r="37.9"/>
<title>Artboard 1</title>
<path class="st0" d="M40,4c19.9,0,36,16.1,36,36S59.9,76,40,76S4,59.9,4,40S20.1,4,40,4 M40,0C17.9,0,0,17.9,0,40s17.9,40,40,40
	s40-17.9,40-40S62.1,0,40,0z"/>
<polygon class="st1" points="63.6,25.5 63.6,21.2 61.5,23.4 57.6,27.2 54.9,24.5 52.8,22.4 56.6,18.5 58.8,16.4 54.5,16.4 
	50.2,16.3 45.7,20.7 45,21.5 45.4,29.8 29.8,45.4 21.5,45 20.7,45.7 16.3,50.2 16.4,54.5 16.4,58.8 18.5,56.6 22.4,52.8 25.1,55.5 
	27.2,57.6 23.4,61.5 21.2,63.6 25.5,63.6 29.9,63.7 34.3,59.3 35,58.5 34.6,50.2 50.2,34.6 58.5,35 59.3,34.3 63.7,29.9 "/>
</svg>
