<?xml version="1.0" encoding="utf-8"?>
<!-- Generator: Adobe Illustrator 23.0.4, SVG Export Plug-In . SVG Version: 6.00 Build 0)  -->
<svg version="1.1" id="Layer_1" xmlns="http://www.w3.org/2000/svg" xmlns:xlink="http://www.w3.org/1999/xlink" x="0px" y="0px"
	 viewBox="0 0 80 80" style="enable-background:new 0 0 80 80;" xml:space="preserve">
<style type="text/css">
	.st0{fill:#121212;}
</style>
<title>Artboard 1</title>
<path class="st0" d="M40,4c19.9,0,36,16.1,36,36S59.9,76,40,76S4,59.9,4,40S20.1,4,40,4 M40,0C17.9,0,0,17.9,0,40s17.9,40,40,40
	s40-17.9,40-40S62.1,0,40,0z"/>
<path class="st0" d="M49.3,51.2c-1.3,4-10.9,8-18,8s-16.1-3.6-18-8s6.8-8.5,14.7-9.4l0,0h0.1c2.2-0.2,4.3-0.2,6.5,0h0.1
	C42.5,42.7,50.7,46.7,49.3,51.2z"/>
<path class="st0" d="M54.4,41.8c6.7,0.8,13.7,4.1,12.5,7.9c-1.1,3.4-7.3,5.8-15.1,5.5c0,0,7.5-7.7-4.6-13.2
	C46.5,41.7,52.4,41.6,54.4,41.8z"/>
<circle class="st0" cx="31.2" cy="29.8" r="9.1"/>
<circle class="st0" cx="51.7" cy="31" r="7.9"/>
</svg>
